<?xml version="1.0" standalone="no"?>
<!DOCTYPE svg PUBLIC "-//W3C//DTD SVG 20010904//EN"
 "http://www.w3.org/TR/2001/REC-SVG-20010904/DTD/svg10.dtd">
<svg version="1.0" xmlns="http://www.w3.org/2000/svg"
 width="640.000000pt" height="640.000000pt" viewBox="0 0 640.000000 640.000000"
 preserveAspectRatio="xMidYMid meet">
<metadata>
Created by potrace 1.13, written by Peter Selinger 2001-2015
</metadata>
<g transform="translate(0.000000,640.000000) scale(0.100000,-0.100000)"
fill="#333333" stroke="none">
<path d="M603 6370 c4 -16 2 -32 -2 -35 -10 -6 -7 -60 4 -88 4 -10 14 -16 21
-13 7 3 16 1 19 -4 8 -12 -12 -50 -26 -50 -6 0 -3 7 5 16 20 19 20 20 -2 20
-24 0 -21 -42 5 -61 17 -13 17 -14 -7 -24 -16 -6 -19 -10 -8 -10 13 -1 16 -10
13 -43 -1 -24 3 -46 9 -50 7 -5 3 -8 -9 -8 -17 -1 -18 -2 -5 -13 16 -13 18
-57 6 -117 -4 -19 -3 -47 3 -62 8 -22 7 -29 -7 -37 -9 -6 -12 -11 -5 -11 7 0
10 -15 8 -42 -2 -26 2 -47 11 -56 9 -8 12 -22 8 -34 -5 -15 -3 -19 7 -13 11 6
12 5 2 -6 -16 -16 -17 -33 -2 -23 8 5 8 1 0 -14 -12 -23 -2 -35 23 -26 12 4
16 0 16 -15 0 -12 7 -24 15 -27 8 -4 13 -9 10 -14 -6 -9 69 -45 88 -42 4 1 26
-3 50 -9 23 -6 50 -10 60 -10 9 0 15 -4 12 -9 -3 -6 1 -7 9 -4 9 3 16 11 17
18 0 6 4 2 9 -9 5 -11 9 -15 9 -10 1 9 56 14 56 6 0 -1 19 -3 42 -4 22 -1 39
1 37 4 -2 4 3 9 11 13 8 3 15 1 15 -4 0 -6 18 -10 40 -10 22 0 40 -4 40 -10 0
-18 19 -10 25 11 6 17 9 19 16 8 7 -12 9 -11 9 1 1 9 6 6 14 -9 7 -13 15 -19
17 -13 2 6 20 14 39 18 26 4 31 3 20 -5 -13 -9 -13 -11 2 -11 9 0 18 6 20 12
5 13 78 18 78 6 0 -5 9 -8 20 -8 11 0 20 4 20 10 0 6 189 9 545 7 l545 -2 0
-27 c0 -16 5 -28 10 -28 6 0 10 7 10 15 0 8 8 15 18 15 13 0 14 -2 4 -9 -10
-6 -7 -10 12 -15 35 -9 93 -71 102 -109 3 -18 11 -37 16 -44 5 -7 8 -20 6 -30
-2 -10 -11 6 -21 38 -26 81 -62 120 -120 129 -45 7 -48 6 -67 -24 -54 -88 -49
-233 12 -354 17 -35 36 -66 41 -69 5 -3 3 5 -3 18 -10 19 -10 22 0 12 7 -6 14
-22 15 -35 2 -14 17 -60 35 -104 18 -45 31 -94 30 -114 -6 -106 1 -230 12
-230 23 0 32 54 32 192 1 82 2 148 3 148 2 0 14 -21 27 -47 l25 -48 -1 155
c-1 88 -4 142 -8 125 l-8 -30 -1 33 c0 18 -6 43 -12 54 -8 15 -8 32 1 64 13
47 31 61 22 19 -2 -15 0 -25 7 -25 6 0 11 11 11 24 0 24 16 43 27 32 3 -3 1
-23 -5 -46 -6 -26 -6 -38 0 -34 6 4 8 -2 6 -12 -2 -11 -10 -18 -16 -16 -14 2
-16 -34 -3 -42 5 -4 5 -22 0 -43 -11 -51 -11 -76 1 -68 6 3 10 16 10 28 1 21
1 21 12 3 9 -16 7 -22 -10 -34 -22 -14 -30 -56 -13 -66 4 -3 7 -17 5 -32 -2
-19 1 -24 12 -20 8 3 14 1 14 -4 0 -6 -6 -10 -14 -10 -8 0 -18 -5 -22 -12 -5
-7 -3 -8 6 -3 7 4 16 2 21 -6 12 -19 11 -42 -1 -34 -5 3 -10 1 -10 -5 0 -7 -7
-10 -15 -6 -8 3 -15 1 -15 -4 0 -6 6 -10 14 -10 10 0 14 -13 14 -42 0 -24 2
-61 5 -83 5 -45 -1 -64 -14 -44 -7 11 -9 10 -9 -3 0 -11 -5 -15 -15 -12 -9 4
-15 0 -15 -10 0 -8 -10 -24 -22 -36 -25 -23 -34 -65 -17 -76 9 -5 10 -2 6 9
-9 24 2 47 24 47 15 0 17 -4 9 -24 -5 -13 -6 -27 -3 -30 4 -3 1 -6 -5 -6 -6 0
-14 -20 -18 -45 -7 -47 -12 -53 -32 -33 -17 17 -15 39 3 32 10 -4 13 0 10 16
-5 28 -15 39 -15 18 0 -9 -16 -28 -36 -43 -36 -27 -69 -88 -109 -197 -11 -31
-22 -48 -33 -48 -10 0 -69 -18 -132 -41 -261 -92 -289 -100 -326 -90 -20 6
-36 6 -40 0 -3 -5 -13 -5 -25 2 -12 6 -57 13 -101 15 -45 2 -86 8 -92 14 -7 5
-18 5 -25 1 -7 -5 -27 -6 -45 -2 -17 4 -56 6 -86 5 -183 -7 -287 -3 -308 10
-7 4 -12 3 -12 -3 0 -7 -8 -7 -22 -2 -13 4 -29 6 -35 4 -7 -3 -13 -1 -13 4 0
4 -25 8 -55 7 -41 0 -58 4 -65 15 -5 9 -10 11 -10 4 0 -9 -8 -9 -31 -1 -22 8
-36 7 -52 -1 -23 -12 -53 -11 -76 4 -10 5 -16 4 -19 -4 -3 -8 -8 -9 -15 -2
-16 12 -79 17 -96 7 -8 -5 -16 -4 -21 3 -4 8 -17 10 -33 5 -20 -5 -27 -2 -27
9 0 16 -33 13 -56 -5 -7 -5 -16 -3 -23 6 -8 9 -27 13 -57 11 -24 -1 -44 1 -44
6 0 4 -19 8 -42 8 -24 0 -68 3 -98 6 -30 3 -70 5 -87 5 -18 0 -33 4 -33 9 0 5
-9 7 -20 4 -11 -3 -34 0 -52 6 -22 8 -34 8 -36 1 -5 -15 -22 -12 -22 5 0 17
-35 20 -46 4 -4 -7 -9 -7 -13 -2 -9 15 -78 25 -86 13 -4 -6 -15 -8 -26 -5 -13
5 -19 2 -19 -10 0 -20 8 -22 109 -29 46 -4 94 -8 105 -11 12 -2 46 -6 76 -9
30 -3 170 -16 310 -30 140 -14 300 -28 355 -31 55 -3 145 -10 200 -15 147 -13
276 -21 400 -25 113 -3 339 -20 434 -33 l54 -7 -74 -36 c-72 -35 -116 -51
-229 -82 -189 -51 -286 -84 -365 -122 -49 -24 -99 -46 -111 -49 -37 -11 -92
-80 -122 -151 -16 -41 -34 -69 -41 -67 -7 1 -10 -2 -7 -7 6 -9 -17 -48 -59
-102 -20 -25 -55 -35 -55 -16 0 5 7 7 15 3 9 -3 19 3 25 14 6 11 7 20 2 20 -4
0 -17 8 -28 18 -10 9 -39 31 -64 47 -87 58 -131 107 -108 121 6 4 8 3 4 -4 -3
-6 -2 -13 4 -17 5 -3 10 1 10 9 0 9 5 16 11 16 6 0 8 -8 5 -18 -4 -10 0 -26 8
-37 16 -22 57 -29 49 -8 -3 7 -12 12 -21 11 -10 -2 -16 7 -19 27 -2 16 -11 34
-19 38 -8 4 -14 15 -14 22 0 8 -5 15 -11 15 -5 0 -7 -5 -3 -12 4 -7 3 -8 -4
-4 -7 4 -12 14 -12 22 0 11 -4 12 -19 5 -15 -9 -22 -6 -35 14 -9 14 -14 30
-11 35 3 6 -4 10 -18 10 -31 0 -80 51 -71 74 4 10 -1 25 -10 35 -11 12 -13 21
-7 25 5 4 13 2 16 -4 5 -8 11 -7 21 1 7 6 11 16 8 21 -4 6 -9 6 -14 -2 -6 -9
-13 -9 -31 0 -20 11 -25 10 -46 -16 -13 -16 -23 -38 -23 -49 0 -21 41 -71 76
-92 10 -6 14 -12 8 -12 -21 -2 -92 69 -97 96 -6 34 13 74 47 97 16 10 23 22
20 31 -4 8 -10 13 -14 10 -5 -3 -11 -1 -14 4 -7 11 12 27 39 34 l20 5 -20 1
c-31 1 -46 -13 -50 -47 -4 -34 -52 -102 -71 -102 -6 0 -17 -7 -24 -15 -14 -17
-30 -20 -30 -5 0 6 6 10 14 10 22 0 75 71 82 110 4 19 11 40 16 46 5 8 3 14
-6 17 -10 4 -21 -8 -35 -37 -12 -23 -21 -47 -21 -52 0 -6 -12 -21 -27 -35 -15
-13 -21 -16 -14 -6 10 12 10 17 2 17 -8 0 -10 8 -5 23 14 43 12 69 -6 87 -19
19 -20 19 -35 -3 -18 -26 -19 -44 -2 -50 7 -3 7 -6 1 -6 -12 -1 -54 32 -54 42
0 3 11 17 25 31 l26 26 -33 -7 c-38 -7 -48 -14 -30 -20 10 -4 10 -8 1 -19 -15
-19 -33 -18 -25 1 3 8 1 15 -3 15 -5 0 -12 -6 -14 -12 -3 -8 -6 -6 -6 5 -1 9
-6 17 -12 17 -5 0 -7 -5 -3 -11 4 -8 -1 -9 -16 -4 -17 5 -21 4 -15 -5 6 -9 4
-11 -5 -5 -10 6 -10 11 3 20 22 16 21 23 -1 21 -9 0 -20 -9 -25 -20 -6 -16
-10 -16 -24 -5 -9 8 -14 9 -10 3 3 -5 -3 -23 -13 -39 l-18 -28 2 51 c4 65 -6
83 -28 50 -9 -13 -19 -38 -22 -56 -4 -17 -10 -29 -14 -27 -5 3 -11 -3 -13 -12
-3 -10 -5 -1 -6 20 0 21 6 54 14 74 8 19 15 36 15 37 0 1 -8 2 -17 2 -10 1
-37 6 -60 12 -35 8 -43 7 -43 -4 0 -9 11 -14 30 -14 40 0 40 -28 0 -41 l-30
-11 0 -485 c0 -320 3 -482 10 -478 5 3 10 1 10 -4 0 -6 -4 -11 -10 -11 -5 0
-10 -4 -10 -10 0 -5 8 -10 18 -10 30 0 91 -20 106 -36 13 -13 16 -12 24 3 9
15 10 14 10 -7 0 -14 2 -40 5 -57 3 -18 1 -33 -4 -33 -5 0 -9 15 -9 33 l-1 32
-18 -23 c-23 -27 -35 -29 -22 -4 8 16 4 21 -28 35 -21 10 -45 15 -54 11 -12
-4 -15 0 -11 18 4 20 3 21 -4 3 -14 -31 -4 -57 18 -45 25 14 72 -11 59 -31 -5
-8 -9 -9 -9 -2 0 22 -35 18 -57 -6 -27 -28 -28 -34 -8 -51 8 -7 15 -17 15 -22
0 -6 -7 -5 -15 2 -13 10 -15 9 -15 -8 0 -12 5 -24 10 -27 6 -3 10 -11 10 -16
0 -6 -4 -7 -10 -4 -14 9 -12 -28 3 -44 9 -11 9 -13 0 -7 -9 5 -13 -1 -13 -18
0 -13 6 -27 13 -29 9 -4 9 -6 0 -6 -7 -1 -13 -6 -13 -12 0 -6 9 -8 20 -4 11 4
20 2 20 -4 0 -6 -3 -10 -7 -10 -23 4 -33 -3 -33 -22 0 -11 4 -17 10 -14 5 3
10 1 10 -4 0 -6 -4 -11 -8 -11 -5 0 -10 -59 -10 -131 -1 -85 1 -128 8 -124 18
11 30 -5 19 -24 -9 -13 -8 -25 5 -49 9 -17 16 -40 16 -50 0 -25 26 -36 34 -15
4 9 9 13 12 10 3 -3 -1 -16 -10 -29 -9 -12 -16 -35 -16 -50 0 -16 -6 -28 -12
-28 -10 0 -10 -2 -1 -8 7 -4 19 -37 28 -74 11 -50 12 -73 4 -97 -6 -17 -9 -40
-6 -51 7 -28 -12 -36 -22 -9 -8 23 -8 23 -13 -4 -3 -14 -2 -26 1 -25 18 2 25
-3 16 -10 -5 -4 -21 -20 -35 -36 l-25 -30 29 22 c32 25 47 22 25 -5 -12 -15
-12 -16 3 -10 12 4 15 2 11 -9 -3 -7 -9 -14 -14 -14 -5 0 -9 -5 -9 -11 0 -5 4
-7 10 -4 5 3 10 -1 10 -9 0 -18 -16 -21 -25 -6 -3 5 -11 10 -17 10 -6 0 -3 -9
8 -21 16 -17 16 -22 4 -29 -8 -6 -18 -10 -21 -10 -4 0 -9 -6 -12 -14 -4 -10 4
-12 29 -10 21 1 32 -2 28 -8 -3 -5 -15 -7 -26 -5 -16 5 -17 3 -7 -9 7 -8 8
-14 3 -13 -27 5 -36 -1 -24 -16 9 -10 9 -19 2 -27 -5 -7 -10 -62 -11 -123 0
-100 2 -115 26 -162 26 -51 28 -52 47 -35 19 17 19 16 3 -8 -9 -14 -16 -29
-16 -33 1 -5 -2 -11 -5 -14 -3 -4 -6 3 -6 14 0 12 -7 23 -15 27 -8 3 -15 15
-15 26 0 11 -4 20 -10 20 -12 0 -10 -159 2 -166 4 -3 8 -11 8 -17 0 -8 -3 -8
-9 1 -5 8 -9 -50 -10 -137 -1 -104 3 -151 10 -151 6 0 9 7 5 15 -3 8 -1 15 4
15 16 0 11 -30 -5 -36 -13 -5 -15 -56 -15 -370 l0 -364 3200 0 3200 0 0 417
c-1 283 -4 421 -12 430 -7 9 -7 13 0 13 16 0 15 439 -1 459 -10 12 -9 13 1 7
10 -6 13 -3 10 10 -2 11 -11 18 -19 16 -11 -2 -11 0 2 10 18 15 25 103 9 113
-5 3 -10 11 -10 16 0 6 5 7 10 4 6 -4 10 5 10 19 0 14 -6 26 -12 26 -10 0 -10
2 0 9 16 10 12 34 -8 43 -12 5 -12 7 3 7 24 1 22 21 -3 21 -11 0 -20 5 -20 11
0 6 9 8 21 4 16 -5 20 -3 17 12 -3 20 -26 33 -45 26 -6 -3 -9 -12 -6 -21 8
-23 -7 -8 -21 20 -6 12 -22 25 -36 29 -27 8 -26 8 7 15 15 2 24 -2 28 -16 4
-11 13 -20 22 -20 26 0 9 24 -40 55 -25 17 -46 34 -46 38 -1 12 37 -12 79 -49
20 -19 42 -34 47 -34 6 0 10 43 10 105 1 58 -3 105 -8 105 -5 0 -9 5 -9 11 0
5 4 8 8 5 5 -3 9 11 10 30 1 24 -2 33 -10 28 -7 -5 -9 -2 -5 9 3 9 2 19 -4 23
-6 3 -8 12 -5 20 3 8 0 14 -6 14 -6 0 -20 8 -31 17 -15 13 -18 14 -12 3 6 -11
3 -10 -12 2 -11 10 -24 18 -28 18 -12 0 -49 42 -84 94 -22 33 -26 51 -27 111
l0 72 23 -27 c26 -31 29 -45 11 -56 -8 -5 -9 0 -6 14 8 28 -8 39 -17 13 -7
-22 21 -115 43 -146 14 -20 14 -19 9 3 -4 19 -3 21 9 11 8 -6 14 -19 14 -27 0
-12 3 -13 12 -4 9 9 8 16 -4 29 -28 31 -58 208 -34 200 6 -2 11 -17 12 -33 3
-114 26 -174 69 -180 10 -1 9 6 -6 29 -10 18 -19 37 -19 42 0 6 4 4 9 -4 7
-11 13 -12 23 -3 11 8 14 7 14 -9 0 -10 -5 -19 -10 -19 -23 0 8 -14 36 -16 30
-3 30 -3 25 42 -2 24 -1 41 4 38 10 -6 12 39 2 49 -3 4 -15 0 -24 -9 -17 -16
-19 -15 -29 10 -5 15 -10 36 -10 47 0 10 -4 19 -9 19 -10 0 -9 27 2 35 4 3 5
2 2 -1 -9 -13 15 -43 30 -38 10 4 15 0 15 -14 0 -12 5 -24 10 -27 23 -14 8 33
-22 69 -20 25 -27 40 -20 45 6 4 10 21 8 39 -7 51 -16 57 -42 26 -13 -16 -23
-23 -24 -16 0 6 4 12 9 12 5 0 8 8 7 18 -1 17 9 18 66 10 19 -2 25 -28 7 -28
-6 0 -8 -8 -4 -20 3 -10 1 -28 -5 -40 -6 -12 -7 -20 -1 -20 14 0 21 15 26 52
2 18 6 47 10 65 5 26 3 32 -12 31 -32 -1 -115 11 -121 17 -10 10 21 25 33 16
5 -5 18 -7 28 -6 10 2 31 0 47 -5 33 -9 42 5 10 15 -11 3 -20 15 -20 26 0 10
-5 19 -11 19 -6 0 -8 -9 -4 -20 3 -11 2 -20 -3 -20 -15 0 -22 26 -9 39 8 8 8
11 0 11 -14 0 -5 36 13 51 8 6 14 19 14 28 0 9 -14 -5 -30 -31 -17 -27 -35
-48 -40 -48 -6 0 -10 -7 -10 -16 0 -14 2 -15 17 -3 14 12 16 12 12 0 -7 -19
-20 -23 -38 -12 -12 7 -8 21 17 74 32 66 41 95 21 67 -8 -12 -10 -8 -7 17 3
18 0 30 -4 27 -5 -3 -15 0 -23 6 -19 16 -19 2 0 -30 19 -33 19 -46 0 -30 -8 7
-15 21 -15 32 0 10 -4 17 -9 14 -4 -3 -6 7 -4 22 4 26 4 26 -11 8 -9 -11 -16
-24 -16 -30 0 -5 -2 -7 -5 -4 -3 3 2 24 10 48 18 51 18 50 4 50 -5 0 -7 -5 -4
-10 3 -5 1 -10 -4 -10 -6 0 -10 -5 -8 -11 4 -20 -33 -18 -47 3 -9 12 -19 17
-27 13 -7 -5 -10 -4 -6 3 11 17 -4 44 -21 37 -12 -4 -13 -3 -2 10 10 12 16 13
26 4 8 -6 14 -16 14 -21 0 -5 7 -20 16 -34 13 -19 20 -22 30 -13 16 13 19 49
3 49 -5 0 -8 -4 -5 -8 2 -4 1 -14 -3 -21 -6 -9 -13 2 -24 32 -15 44 -15 45 6
51 21 5 21 6 2 20 -12 9 -22 11 -26 4 -3 -5 -8 -9 -10 -8 -15 5 -37 -14 -32
-28 4 -13 3 -13 -9 2 -14 18 -15 18 -31 -5 -14 -19 -17 -20 -17 -6 0 9 5 17
11 17 6 0 8 8 4 19 -3 11 -1 22 4 26 7 3 8 0 5 -9 -4 -11 0 -16 15 -16 23 0
30 35 9 43 -9 4 -8 6 3 6 8 1 21 -5 29 -12 12 -10 12 -9 1 6 -11 13 -11 17 -1
17 7 0 18 -7 24 -15 9 -12 11 -10 12 15 1 32 -5 37 -24 18 -8 -8 -15 -8 -28 3
-16 12 -17 12 -11 -5 5 -13 3 -17 -7 -13 -8 3 -17 1 -20 -6 -3 -9 -5 -9 -5 0
-1 6 3 15 9 18 6 3 10 19 10 35 0 16 5 32 12 36 6 4 8 3 4 -4 -3 -6 -1 -14 5
-17 7 -5 9 1 7 16 -1 13 -10 24 -18 24 -8 0 -21 11 -29 25 -17 30 -29 176 -14
167 22 -14 -13 92 -40 123 -18 19 -26 38 -22 49 5 18 -13 32 -65 47 -34 11
-37 11 -65 13 -14 0 -24 6 -22 14 1 6 -3 11 -10 10 -8 -2 -9 6 -2 30 5 17 9
33 9 34 0 2 4 3 10 3 6 0 5 -10 -2 -25 -11 -25 2 -55 24 -55 6 0 5 7 -3 16
-10 12 -10 17 -1 23 8 4 10 15 6 26 -6 14 -4 17 9 12 21 -8 22 0 2 19 -19 20
4 82 26 68 5 -3 9 8 9 24 0 39 42 74 105 84 84 15 319 25 355 17 8 -2 15 3 15
11 0 12 -20 16 -98 20 -53 3 -97 1 -97 -4 0 -5 -18 -6 -40 -2 -22 3 -40 2 -40
-2 0 -10 -81 -8 -98 2 -7 4 -12 1 -12 -9 0 -9 -4 -14 -9 -10 -5 3 -21 0 -36
-7 -22 -10 -28 -9 -36 3 -5 8 -9 9 -9 4 0 -12 -89 -39 -98 -30 -3 2 -11 -3
-17 -12 -11 -15 -13 -15 -19 5 -4 12 -12 22 -18 22 -5 0 -7 7 -4 16 7 18 -16
13 -76 -17 -42 -22 -160 -137 -194 -192 -22 -33 -23 -43 -16 -92 11 -71 -6
-69 -24 1 -7 28 -23 68 -35 88 -22 38 -84 84 -122 92 -11 2 -25 8 -31 14 -5 5
-16 10 -24 10 -7 0 -34 9 -59 21 -25 11 -47 18 -50 15 -3 -3 -14 -1 -25 5 -10
5 -40 12 -66 14 -26 2 -47 4 -47 5 0 1 -31 3 -70 5 -38 2 -72 4 -75 5 -3 1
-49 1 -103 1 -74 0 -96 3 -90 12 5 9 3 9 -8 1 -16 -13 -68 -12 -89 1 -9 5 -11
4 -6 -3 5 -8 -9 -11 -48 -8 -30 2 -57 1 -61 -2 -3 -3 -38 -6 -78 -7 -40 0 -76
-3 -82 -6 -5 -3 -35 -5 -64 -4 -53 3 -54 2 -28 -12 21 -11 65 -13 194 -11
l167 3 10 -27 c8 -23 6 -33 -12 -58 -27 -36 -28 -50 -3 -50 14 0 22 10 27 33
4 17 7 36 5 41 -1 5 1 22 4 37 8 33 30 38 38 9 3 -14 10 -18 22 -14 9 4 14 13
10 21 -3 10 -1 13 9 10 8 -3 17 -3 20 1 20 20 432 -17 470 -42 14 -9 30 -16
36 -16 30 0 158 -75 184 -108 56 -71 67 -126 72 -352 2 -96 6 -247 9 -335 4
-88 6 -224 5 -303 l-1 -143 45 -102 c24 -56 78 -169 119 -252 126 -253 226
-479 251 -572 44 -161 136 -548 135 -568 0 -12 -5 -7 -10 14 -6 18 -19 42 -30
54 -10 11 -19 24 -19 28 0 6 -48 21 -76 23 -6 1 -18 7 -26 14 -15 12 -28 7
-28 -12 0 -6 5 -4 10 4 5 8 10 11 10 5 0 -20 -16 -31 -43 -30 -16 1 -31 -3
-33 -7 -3 -4 -25 9 -49 29 -42 34 -52 59 -20 46 11 -4 13 -1 9 11 -4 11 -1 16
10 16 10 0 13 6 10 15 -7 18 21 21 32 3 10 -16 26 30 18 54 -5 18 -4 18 16 8
21 -11 22 -10 18 12 -2 13 1 30 9 36 7 7 13 22 13 33 0 13 4 18 12 13 7 -5 8
-3 3 6 -4 7 -2 16 6 21 9 5 10 9 2 9 -6 0 -16 31 -23 73 -15 94 -17 101 -40
127 -11 13 -20 30 -20 39 1 13 3 13 15 -3 8 -11 15 -15 15 -9 0 6 -7 16 -15
23 -8 7 -15 19 -15 26 0 8 -4 14 -10 14 -5 0 -10 -7 -10 -15 0 -8 -4 -15 -10
-15 -5 0 -10 5 -10 10 0 6 -4 10 -8 10 -4 0 -8 -9 -8 -20 0 -11 5 -20 11 -20
5 0 3 -5 -5 -10 -10 -7 -11 -13 -5 -17 6 -5 11 -24 12 -43 0 -19 1 -44 2 -55
3 -47 -1 -85 -9 -90 -5 -3 -7 -12 -4 -19 3 -8 1 -17 -4 -20 -9 -5 -42 51 -42
71 0 15 -39 91 -50 98 -6 4 -7 11 -4 17 4 6 3 8 -3 5 -5 -4 -23 7 -38 23 -25
26 -26 30 -10 30 17 0 17 2 -3 23 -12 12 -23 32 -25 42 -2 11 -7 28 -12 38 -4
10 -5 21 -2 24 4 3 0 15 -8 25 -7 11 -11 28 -8 37 4 9 3 13 -2 9 -10 -10 -34
21 -35 44 0 9 -5 20 -12 24 -7 4 -8 3 -4 -4 4 -7 1 -12 -10 -12 -13 0 -14 -3
-4 -15 10 -12 10 -15 0 -15 -14 0 -6 -60 9 -70 5 -3 9 -16 9 -30 -1 -35 9 -69
27 -96 14 -22 14 -24 -2 -24 -10 0 -14 -4 -8 -8 20 -14 35 -51 24 -57 -6 -4
-2 -20 11 -42 14 -25 19 -47 16 -79 -2 -24 1 -47 6 -50 5 -3 7 -12 4 -19 -2
-7 2 -22 10 -34 8 -11 11 -21 5 -21 -6 0 -7 -15 -4 -35 5 -30 3 -35 -14 -35
-12 0 -19 -7 -20 -20 -1 -11 -8 -26 -16 -34 -12 -12 -16 -10 -32 17 l-19 32
26 -17 26 -17 -1 32 c-1 21 -7 32 -17 32 -8 1 -14 6 -12 13 1 7 -5 12 -13 12
-9 0 -12 6 -8 17 5 12 3 14 -7 8 -10 -6 -12 -3 -8 13 6 23 -7 31 -15 10 -2 -7
-8 -9 -13 -5 -4 4 -2 17 5 29 11 18 11 20 -2 15 -19 -7 -29 17 -14 32 9 9 8
11 -5 6 -11 -5 -18 -2 -18 5 0 9 -3 10 -13 1 -11 -8 -16 -6 -25 12 -15 31 -26
76 -14 59 7 -11 11 -10 17 5 12 26 14 74 4 67 -5 -3 -9 2 -9 10 0 9 4 16 9 16
11 0 0 219 -16 315 -3 17 -6 40 -7 52 0 11 -4 19 -8 16 -8 -4 -12 27 -9 55 1
6 -2 12 -6 12 -9 0 -13 20 -14 70 -1 13 -7 33 -15 44 -8 11 -14 32 -14 46 0
15 -8 51 -17 81 -10 30 -18 59 -18 64 0 6 -4 16 -9 24 -7 10 -5 12 3 6 10 -6
11 -3 4 11 -6 11 -11 46 -12 79 -2 33 -6 62 -9 65 -4 3 -8 21 -9 41 -1 20 -8
55 -16 77 -8 23 -11 42 -7 42 5 0 6 9 3 20 -3 11 -9 20 -13 20 -4 0 -8 6 -7
13 1 29 -3 50 -10 44 -3 -4 -12 1 -18 10 -10 14 -10 21 0 38 10 17 9 23 -6 38
-18 16 -19 16 -19 -2 0 -11 5 -23 10 -26 8 -5 7 -11 0 -20 -7 -8 -9 -19 -5
-25 12 -20 16 -229 5 -250 -7 -13 -7 -20 -1 -20 12 0 12 -144 0 -177 -6 -16
-5 -23 3 -23 6 0 2 -10 -10 -22 -15 -17 -18 -27 -11 -41 8 -13 6 -17 -6 -17
-13 0 -14 -19 -9 -152 3 -84 6 -173 5 -198 0 -24 6 -48 12 -52 9 -6 9 -8 -1
-8 -7 0 -10 -4 -7 -10 18 -29 3 -150 -18 -150 -8 0 -7 -4 1 -12 14 -14 -4 -52
-20 -42 -6 4 -8 3 -5 -3 4 -6 0 -13 -8 -17 -8 -3 -15 -11 -15 -18 0 -9 3 -9
11 2 9 13 10 13 6 0 -2 -8 -10 -14 -16 -12 -6 1 -11 -4 -11 -10 0 -9 -4 -8
-10 2 -13 20 -13 33 0 25 6 -3 10 -1 10 4 0 6 -6 11 -12 11 -7 0 -3 7 9 15 22
15 32 47 37 110 3 31 1 33 -15 24 -23 -12 -24 -1 -10 82 11 63 25 266 23 324
-1 22 -9 78 -18 124 -14 78 -14 149 1 256 2 17 7 57 10 90 4 33 9 78 12 100 8
53 8 213 1 245 -3 14 -12 53 -19 88 -7 34 -17 62 -22 62 -4 0 -6 4 -2 9 3 5
-7 18 -22 29 l-28 20 -2 -26 c-1 -17 2 -21 7 -11 8 11 10 11 14 -1 15 -49 16
-71 1 -76 -9 -4 -15 -19 -15 -39 0 -19 -5 -37 -11 -41 -7 -4 -9 0 -6 12 13 45
18 104 9 104 -5 0 -21 11 -37 26 -15 14 -30 23 -33 20 -6 -7 37 -46 50 -46 9
0 11 -63 2 -73 -3 -3 -17 7 -31 24 -14 16 -29 29 -34 29 -13 0 7 -46 31 -70
20 -20 26 -50 14 -63 -4 -3 -15 5 -26 18 -11 14 -24 25 -29 25 -18 0 -9 -37
16 -64 14 -15 25 -36 25 -48 0 -21 0 -21 -22 -2 -13 10 -26 24 -30 29 -4 6 -8
0 -8 -13 0 -13 9 -32 20 -44 11 -12 20 -30 20 -40 0 -17 -1 -18 -25 -2 -24 15
-25 15 -25 -3 0 -10 9 -26 20 -36 21 -17 27 -37 12 -37 -18 0 -43 39 -49 74
-3 20 -10 39 -14 42 -16 9 -9 -39 10 -80 44 -92 121 -300 130 -352 7 -35 7
-63 1 -80 -6 -14 -10 -37 -10 -52 l0 -27 -16 32 c-9 18 -20 30 -25 27 -5 -3
-9 -1 -9 5 0 5 -10 13 -22 17 -12 3 -30 15 -41 25 -11 10 -23 16 -27 14 -5 -3
-11 2 -14 11 -5 14 -9 14 -23 3 -11 -9 -17 -10 -20 -3 -2 6 -17 8 -33 6 -25
-4 -29 -1 -24 13 6 15 5 16 -15 3 -19 -11 -24 -11 -35 4 -7 10 -16 15 -20 11
-11 -11 -50 -11 -64 0 -9 7 -11 5 -6 -9 6 -18 5 -17 -9 1 -9 11 -17 26 -17 33
0 6 -4 12 -10 12 -5 0 -6 8 -3 18 6 15 5 16 -9 2 -8 -9 -19 -27 -23 -40 l-8
-24 -14 27 c-17 33 -33 35 -34 5 0 -16 -2 -18 -6 -8 -10 24 -37 40 -45 27 -4
-6 -2 -14 3 -18 6 -3 11 -21 12 -40 2 -21 7 -33 15 -31 7 1 15 -4 18 -12 3 -8
12 -12 19 -10 7 3 16 -4 20 -15 3 -12 11 -22 16 -22 5 -1 14 -2 19 -3 6 0 15
-7 19 -15 5 -8 14 -10 22 -6 9 6 11 3 6 -8 -3 -10 -2 -17 2 -17 5 0 12 6 14
13 4 7 6 6 6 -5 1 -11 16 -20 52 -27 92 -20 303 -93 322 -111 18 -16 18 -21 3
-71 -8 -30 -20 -88 -27 -129 -16 -109 -28 -139 -25 -65 1 33 -1 71 -5 85 -7
24 -7 24 -8 3 -1 -13 -6 -23 -12 -23 -6 0 -8 -9 -4 -21 5 -15 4 -19 -5 -14 -6
4 -10 15 -7 25 6 22 -24 40 -58 34 -21 -4 -26 -1 -22 9 4 10 -1 13 -17 10 -15
-3 -22 -12 -22 -25 1 -12 -5 -23 -13 -26 -8 -3 -11 0 -7 7 4 6 1 11 -8 11 -9
0 -16 5 -16 12 0 6 -3 9 -6 5 -3 -3 -8 -30 -11 -59 -2 -29 -6 -59 -8 -65 -2
-7 0 -13 5 -13 12 0 31 36 23 44 -3 3 -1 6 5 6 6 0 13 8 15 17 3 10 5 1 6 -21
1 -29 4 -37 16 -32 8 3 15 1 15 -4 0 -6 -5 -10 -11 -10 -6 0 -4 -11 5 -27 8
-16 21 -46 28 -68 18 -49 23 -261 8 -295 -9 -22 -10 -20 -6 15 4 38 4 37 -11
-11 -13 -43 -19 -52 -38 -50 -15 1 -21 6 -17 15 4 10 -1 11 -18 6 -16 -5 -20
-4 -15 4 5 8 -1 10 -19 5 -20 -5 -26 -2 -26 10 0 19 -19 21 -26 3 -2 -7 -22
-13 -45 -13 -28 -1 -38 3 -35 12 3 7 -1 17 -8 23 -10 9 -12 6 -8 -14 4 -22 1
-25 -22 -25 -14 0 -26 4 -26 10 0 5 -7 7 -15 4 -41 -16 33 -104 87 -104 17 0
39 -7 49 -16 17 -15 18 -15 13 12 l-5 29 29 -34 c16 -20 34 -32 43 -29 7 3 22
1 33 -4 13 -7 21 -6 27 3 13 19 28 -6 21 -33 -4 -19 -1 -20 47 -17 47 4 52 2
58 -19 13 -52 -46 -159 -92 -166 -11 -2 -19 -8 -18 -14 2 -6 -9 -10 -24 -9
-16 1 -28 -4 -30 -13 -4 -13 -3 -13 6 0 7 9 11 10 11 3 0 -19 -18 -25 -40 -13
-14 8 -20 8 -20 0 0 -6 -6 -8 -12 -4 -10 6 -10 4 0 -7 20 -22 14 -30 -12 -14
-30 20 -72 32 -139 40 -116 14 -168 25 -212 44 -39 17 -45 24 -44 48 l2 28 4
-27 c2 -16 6 -28 7 -28 2 0 19 -7 39 -15 34 -14 35 -14 29 7 -3 14 -1 19 6 14
7 -4 12 -13 12 -21 0 -7 6 -15 13 -18 8 -3 14 1 14 9 0 7 -4 11 -8 9 -8 -5
-22 25 -15 32 3 3 11 1 18 -3 20 -13 48 -15 48 -4 0 7 6 7 19 0 13 -6 22 -7
26 0 3 5 15 6 28 1 31 -12 40 -11 57 4 9 8 31 16 50 18 75 9 118 30 129 62 8
23 10 24 6 5 -4 -24 -3 -24 10 -6 16 21 15 26 -7 30 -7 1 -17 4 -23 8 -5 3
-26 9 -45 13 -19 4 -41 12 -49 19 -12 9 -13 8 -6 -4 8 -13 6 -13 -8 -2 -9 8
-21 11 -27 7 -5 -3 -10 1 -10 10 0 9 -4 13 -10 10 -5 -3 -10 -1 -10 4 0 6 -9
11 -21 11 -11 0 -18 4 -15 9 5 8 -42 36 -56 33 -3 -1 -12 5 -18 13 -7 8 -21
15 -30 15 -10 0 -20 5 -22 12 -2 6 -21 12 -41 12 -23 1 -37 6 -37 14 0 9 -5
10 -19 3 -15 -8 -20 -7 -26 6 -5 15 -7 15 -15 3 -8 -12 -10 -9 -11 10 l-1 25
-7 -25 c-13 -47 -51 162 -50 275 1 56 4 89 8 75 4 -14 20 -31 36 -39 23 -11
26 -16 14 -20 -12 -4 -14 -12 -8 -26 6 -17 8 -17 8 -2 1 19 9 21 30 8 8 -5 27
-5 44 0 20 5 35 5 41 -1 7 -7 2 -10 -13 -10 -13 0 -20 -4 -16 -11 4 -6 19 -7
37 -3 26 5 30 4 25 -11 -4 -9 -7 -19 -7 -21 0 -2 -8 -4 -17 -4 -15 0 -16 -2
-3 -10 8 -5 12 -11 10 -13 -9 -8 -80 5 -75 13 3 5 1 11 -5 15 -5 3 -10 -3 -10
-13 0 -11 9 -22 20 -25 12 -3 20 -14 20 -27 0 -11 5 -18 10 -15 6 3 10 1 10
-4 0 -6 -4 -11 -10 -11 -5 0 -10 -4 -10 -8 0 -4 16 -6 35 -4 22 3 35 0 35 -7
0 -8 5 -9 19 -1 27 14 34 13 27 -6 -4 -12 -2 -15 9 -10 8 3 15 0 15 -6 0 -9 3
-9 11 -1 6 6 19 8 30 6 16 -5 17 -8 7 -22 -12 -14 -11 -14 12 0 14 9 25 23 26
30 1 10 0 10 -3 2 -5 -16 -5 -16 -34 0 -13 6 -25 20 -25 30 -2 21 12 23 20 2
3 -8 11 -15 18 -14 10 0 10 2 1 6 -7 2 -13 9 -13 14 0 12 33 -1 48 -19 7 -10
12 -11 12 -4 0 7 5 12 10 12 6 0 10 -8 10 -17 0 -12 3 -14 10 -7 14 14 1 47
-15 40 -22 -8 -38 10 -26 30 10 19 10 19 11 0 0 -15 6 -17 30 -14 18 3 31 0
34 -9 3 -7 12 -10 23 -6 16 6 17 5 3 -12 -8 -10 -10 -16 -3 -12 6 4 15 2 19
-5 6 -9 10 -5 15 12 7 24 7 24 8 3 1 -25 9 -28 31 -12 12 9 12 10 -3 5 -12 -4
-17 -2 -14 6 2 7 10 12 16 11 6 -2 11 8 11 22 0 14 6 25 13 25 9 0 9 2 -1 9
-7 4 -14 26 -15 49 0 23 -4 37 -8 31 -4 -7 -9 -4 -13 6 -3 9 -10 13 -16 10 -5
-3 -10 3 -10 15 0 12 -4 19 -8 16 -5 -3 -16 8 -26 25 -20 34 -41 39 -31 8 10
-31 -15 -20 -40 18 -11 17 -29 34 -40 37 -19 5 -19 4 -2 -8 20 -15 23 -36 5
-37 -7 0 -23 -2 -35 -3 -15 -2 -19 2 -15 12 4 12 0 14 -17 9 -19 -5 -21 -2
-15 16 6 22 6 22 -10 2 -16 -20 -16 -20 -22 3 -5 17 -11 21 -26 16 -16 -5 -19
-3 -12 7 6 12 5 12 -9 0 -9 -7 -17 -10 -17 -5 0 5 -5 2 -10 -6 -9 -13 -12 -13
-23 0 -17 21 -37 23 -37 5 0 -8 -4 -15 -10 -15 -5 0 -10 7 -10 15 0 8 -4 15
-10 15 -16 0 -60 50 -67 78 l-7 27 -7 -30 -7 -30 -1 28 c0 15 -31 99 -67 185
-36 86 -68 171 -71 189 -6 33 -16 42 -28 24 -6 -11 55 -168 109 -281 20 -41
36 -86 35 -100 0 -15 -3 -19 -6 -10 -9 25 -38 47 -57 44 -13 -2 -16 2 -11 14
5 13 3 14 -6 5 -6 -6 -18 -9 -25 -6 -8 3 -14 -1 -14 -8 -1 -10 -4 -9 -14 3 -7
10 -16 15 -19 11 -4 -3 -11 6 -16 21 -6 14 -16 26 -22 26 -7 0 -18 8 -25 18
-12 15 -12 15 -7 -5 3 -14 1 -23 -6 -23 -6 0 -16 10 -21 23 -5 12 -9 18 -9 12
-1 -5 -8 1 -17 14 -13 18 -18 20 -25 10 -6 -10 -12 -4 -22 20 -14 32 -14 32
-21 10 -6 -24 -6 -24 -20 6 -8 17 -17 43 -20 58 -4 15 -11 25 -16 22 -6 -4
-10 12 -10 39 0 25 -4 46 -10 46 -5 0 -10 11 -10 25 0 18 -4 23 -15 19 -10 -4
-13 -2 -10 8 7 18 -33 70 -47 62 -6 -4 -8 -2 -5 3 7 12 -16 36 -26 28 -4 -3
-5 -2 -2 1 8 12 -16 45 -27 38 -6 -4 -8 -3 -5 3 8 13 -17 36 -28 25 -5 -4 -5
-2 -1 5 14 25 -290 328 -374 373 -12 7 -19 14 -16 17 8 9 146 -99 251 -196 66
-61 58 -51 -30 35 -66 66 -144 135 -172 153 -29 19 -53 38 -53 43 0 13 84 -46
155 -107 97 -85 184 -173 285 -289 121 -139 149 -180 144 -209 -4 -21 -4 -21
5 -2 6 12 10 15 10 6 1 -8 4 -12 7 -9 3 3 0 15 -8 27 -10 17 -10 23 1 33 9 8
12 9 7 1 -7 -13 13 -63 25 -63 4 0 10 6 13 13 3 6 3 2 0 -10 -4 -18 -2 -22 10
-17 9 3 16 2 16 -3 0 -5 6 -10 14 -10 8 0 11 8 8 19 -2 10 -9 18 -15 18 -6 0
-7 3 -4 6 3 4 2 15 -4 26 -6 11 -13 17 -16 14 -3 -3 -16 5 -28 19 -22 23 -23
23 -28 3 -3 -12 -10 -17 -17 -13 -6 4 -9 13 -6 21 3 8 1 13 -4 11 -14 -3 -110
115 -103 127 3 6 3 8 -2 4 -8 -7 -57 41 -108 105 -12 16 -48 56 -79 90 -32 34
-57 69 -57 77 1 11 3 10 6 -3 2 -9 9 -14 14 -11 6 3 13 -3 16 -15 3 -11 9 -18
14 -15 5 3 13 -5 18 -18 6 -13 10 -19 10 -14 1 10 61 -51 111 -114 35 -43 80
-96 132 -153 20 -23 26 -25 22 -11 -3 10 -41 62 -85 114 -44 52 -104 124 -133
160 -67 82 -193 200 -268 251 -50 34 -96 77 -56 53 58 -36 139 -95 186 -137
l57 -51 -55 58 c-30 32 -88 80 -128 108 -40 28 -70 53 -68 55 6 6 111 -65 177
-119 25 -21 50 -34 54 -30 5 4 5 2 2 -4 -8 -14 17 -37 27 -26 4 4 6 0 4 -8 -2
-8 2 -14 9 -15 6 0 15 -4 20 -9 5 -6 2 -6 -7 -1 -13 8 -13 6 -2 -8 8 -9 19
-15 25 -14 6 1 13 -8 15 -21 2 -12 8 -20 13 -17 5 4 9 -1 9 -10 0 -8 7 -18 15
-21 8 -4 15 -12 15 -20 0 -8 7 -14 16 -14 10 0 14 -6 11 -14 -3 -8 2 -20 11
-28 13 -11 14 -11 7 1 -5 10 -4 12 4 7 6 -4 9 -11 6 -16 -7 -11 20 -32 30 -22
5 4 5 1 1 -6 -4 -7 -1 -15 7 -18 8 -3 18 -15 21 -27 4 -15 8 -19 16 -11 8 8 7
25 -1 60 -37 151 -52 204 -60 204 -5 0 -9 9 -9 20 0 11 -6 20 -14 20 -8 0 -13
8 -12 18 0 9 -5 16 -11 15 -7 -2 -13 6 -13 17 0 11 -7 20 -16 20 -8 0 -12 5
-9 10 3 6 -1 13 -9 16 -9 3 -16 15 -16 25 0 10 -4 19 -10 19 -5 0 -10 9 -10
19 0 10 -7 21 -15 25 -8 3 -12 12 -9 21 4 10 2 15 -7 13 -7 -2 -13 6 -14 17 0
11 -5 19 -12 18 -7 -2 -10 3 -7 11 3 9 -16 31 -51 57 -104 81 -124 102 -55 58
36 -23 76 -51 90 -63 19 -16 18 -13 -5 12 -16 18 -51 47 -78 64 -26 17 -46 33
-43 35 8 8 90 -48 140 -96 l49 -46 -41 60 c-40 57 -48 80 -19 57 8 -7 17 -9
20 -5 4 3 7 -1 7 -10 0 -9 3 -17 8 -17 4 0 15 -19 25 -41 10 -23 21 -39 24
-36 11 12 -48 116 -82 146 -19 17 -35 32 -35 34 0 2 16 3 35 2 39 -1 68 -26
79 -69 11 -43 15 -27 7 25 -10 62 -4 75 21 44 14 -18 26 -24 39 -20 14 5 19 1
19 -11 0 -9 11 -37 25 -61 16 -26 21 -43 14 -43 -7 0 -9 -3 -6 -7 4 -3 -1 -11
-10 -18 -18 -14 -28 -121 -12 -131 6 -3 9 2 7 12 -2 13 4 20 20 22 12 2 20 8
17 13 -4 5 -1 9 4 9 6 0 11 11 11 25 0 14 5 25 11 25 5 0 7 -5 4 -10 -3 -6 -1
-10 5 -10 6 0 13 14 17 30 3 17 9 30 14 30 4 0 9 12 11 27 2 14 9 28 16 31 7
2 45 -28 86 -67 40 -40 83 -73 94 -76 l22 -4 -21 41 c-11 22 -42 68 -68 102
-27 33 -72 97 -101 141 -67 101 -138 186 -191 231 -39 32 -49 39 -49 30 0 -1
12 -16 26 -31 l26 -28 -29 -12 c-15 -7 -31 -10 -35 -8 -5 2 -8 -1 -8 -7 0 -8
7 -9 18 -5 9 4 27 10 40 13 21 4 23 1 20 -24 -2 -17 -8 -28 -15 -27 -7 2 -12
-1 -10 -6 1 -5 -7 -17 -18 -25 -14 -11 -16 -15 -6 -16 11 0 10 -4 -5 -16 -10
-8 -12 -12 -4 -8 12 7 13 5 3 -8 -7 -8 -12 -17 -10 -19 1 -2 -4 3 -11 11 -15
17 -62 21 -59 5 1 -5 -5 -9 -14 -7 -9 1 -39 -22 -67 -52 -28 -30 -53 -49 -55
-42 -3 6 -9 0 -15 -14 -7 -17 -11 -19 -11 -8 -1 26 112 162 164 198 27 18 43
36 38 42 -4 8 -9 5 -14 -8 -4 -10 -8 -15 -8 -10 -1 6 -8 1 -16 -10 -8 -10 -15
-14 -15 -9 0 6 -5 3 -10 -5 -9 -13 -11 -13 -20 0 -8 12 -10 12 -10 -5 0 -11
-9 -26 -20 -33 -17 -10 -20 -10 -20 4 0 8 5 12 10 9 6 -3 10 2 10 12 0 19 32
53 50 53 6 0 9 6 7 13 -1 6 4 11 11 10 6 -2 12 2 12 7 0 6 7 10 15 10 8 0 15
5 15 11 0 16 -77 -31 -122 -76 -45 -44 -106 -133 -118 -174 -7 -21 -8 -22 -9
-5 -1 11 6 29 14 40 17 23 19 38 4 29 -16 -10 29 74 62 116 16 20 25 39 21 43
-4 4 0 6 8 4 8 -2 15 4 15 12 0 8 6 14 13 13 7 -2 12 4 12 12 0 8 6 12 14 9
10 -4 14 1 12 18 -2 19 4 27 28 38 17 7 46 27 64 44 18 17 35 29 37 26 2 -3
20 14 40 38 l37 43 -74 -56 c-93 -71 -148 -98 -181 -90 -14 4 -28 14 -31 22
-8 20 13 46 31 39 8 -4 13 2 13 15 0 15 5 19 15 15 10 -3 15 1 15 13 0 40 50
79 155 121 102 40 119 45 210 56 40 5 65 19 65 35 0 5 -7 9 -15 9 -9 0 -12 -6
-9 -15 5 -12 2 -14 -17 -7 -13 5 -30 7 -37 5 -6 -3 -12 0 -12 6 0 6 4 11 9 11
5 0 12 7 15 16 5 14 4 15 -9 4 -12 -10 -15 -9 -15 5 0 14 -3 15 -14 6 -11 -9
-15 -8 -21 6 -5 10 -8 21 -7 25 1 4 -5 5 -13 2 -8 -4 -15 -1 -15 5 0 6 -5 11
-11 11 -5 0 -7 -6 -4 -12 4 -7 -3 -2 -14 12 -16 20 -23 22 -30 12 -6 -11 -14
-8 -36 14 -29 29 -52 85 -33 81 6 -1 13 4 16 12 3 9 0 11 -8 6 -10 -6 -12 -4
-7 8 4 10 1 17 -6 17 -7 0 -13 9 -14 20 -1 11 2 20 7 20 5 0 7 7 4 15 -4 8 -1
15 4 15 6 0 14 9 17 21 5 14 13 19 25 16 28 -7 47 10 54 48 4 19 11 35 16 35
5 0 7 -8 3 -17 -5 -14 -3 -16 7 -6 17 16 5 43 -20 43 -11 0 -20 4 -20 9 0 27
218 16 263 -14 16 -10 35 -31 43 -46 16 -33 18 -33 45 -19 20 11 26 40 8 40
-8 0 -8 4 0 14 8 10 9 16 1 21 -5 3 -10 2 -10 -2 0 -5 -11 -10 -25 -11 -22 -2
-27 3 -24 24 0 4 -3 10 -8 13 -17 12 -63 91 -63 108 -1 14 -4 12 -15 -7 -13
-22 -14 -23 -15 -5 0 17 -2 17 -10 5 -14 -21 -12 -30 4 -30 17 0 29 -27 15
-36 -14 -8 -79 27 -79 43 0 7 -7 10 -17 6 -15 -5 -16 -3 -5 8 14 15 16 33 3
25 -5 -4 -8 2 -7 11 2 9 9 19 17 22 7 2 20 10 28 18 7 8 26 17 42 20 16 3 34
12 40 19 6 8 17 14 25 14 7 0 22 9 33 21 19 21 19 22 0 66 -10 24 -19 60 -19
79 0 18 -4 53 -10 76 -26 118 -27 136 -11 162 13 22 13 30 3 46 -10 17 -10 21
3 26 8 4 15 10 15 15 0 4 -7 6 -15 3 -9 -4 -15 0 -15 9 0 9 -4 18 -8 21 -4 2
-6 -12 -4 -32 4 -33 3 -35 -12 -23 -9 7 -16 19 -16 26 0 16 -62 71 -89 80 -12
3 -21 13 -21 20 0 19 -73 38 -124 31 -22 -2 -35 -2 -28 1 18 7 15 21 -8 28
-12 4 -28 1 -37 -7 -15 -12 -15 -11 -4 11 8 14 9 21 2 17 -6 -4 -19 -2 -28 3
-10 6 -13 11 -8 11 6 0 4 4 -4 9 -11 7 -10 14 5 40 10 17 24 29 31 27 7 -3 13
1 13 9 0 8 8 12 20 10 16 -3 18 -1 11 13 -10 20 -3 45 10 36 5 -3 9 2 9 12 0
13 3 14 14 5 19 -16 27 7 12 32 -8 13 -8 20 4 27 8 5 17 7 20 5 11 -7 4 33 -8
48 -10 11 -9 17 3 27 19 16 19 30 1 30 -8 0 -16 7 -20 15 -5 13 -2 14 15 4 11
-6 24 -7 27 -3 4 4 1 9 -5 11 -18 6 -16 28 3 44 13 10 17 10 25 -2 7 -11 9
-10 9 5 0 13 5 17 20 13 11 -3 20 -2 20 1 0 4 14 15 31 24 17 10 27 12 23 5
-5 -8 -3 -8 9 1 9 8 21 11 27 7 17 -10 50 -14 50 -6 0 5 -10 16 -22 25 -22 15
-21 15 10 0 19 -8 36 -13 40 -10 3 3 0 6 -6 6 -6 0 -17 10 -23 23 -12 21 -11
21 7 7 49 -37 55 -43 43 -51 -7 -4 -1 -6 13 -6 29 2 28 6 -16 93 -31 62 -34
84 -7 60 18 -16 19 -16 16 15 -1 20 -11 39 -26 50 -13 10 -19 19 -12 19 6 0
15 -5 18 -10 3 -6 18 -7 33 -3 23 5 25 4 15 -9 -10 -12 -6 -20 25 -49 l37 -34
-33 36 c-35 38 -33 58 5 34 31 -21 29 -11 -4 20 -15 14 -24 25 -20 25 17 0 53
-24 74 -49 17 -19 22 -22 23 -10 0 9 -7 22 -15 29 -9 7 -13 15 -11 18 3 2 0
14 -6 26 -11 21 -11 21 11 2 19 -17 21 -18 15 -3 -7 20 -54 47 -79 47 -9 0
-13 -5 -9 -11 4 -7 -2 -6 -17 1 -23 13 -24 12 -6 -7 22 -25 22 -33 0 -33 -16
0 -16 2 -3 11 12 9 11 10 -7 6 -12 -3 -32 2 -44 11 -17 12 -20 12 -14 1 7 -12
6 -12 -7 -1 -12 10 -17 10 -20 1 -2 -7 -10 -9 -17 -5 -7 5 -10 14 -7 21 3 8
-4 17 -15 20 -22 7 -21 26 1 33 7 3 10 0 6 -7 -5 -7 -1 -9 10 -4 13 5 15 3 9
-7 -5 -9 -4 -11 3 -6 35 21 -17 53 -106 66 -38 5 -76 12 -83 15 -10 4 -15 -2
-16 -16 -2 -17 1 -19 10 -10 6 6 15 11 21 11 5 0 6 -3 3 -7 -15 -15 15 -29 57
-27 42 2 45 0 36 -16 -12 -22 -30 -35 -30 -23 0 5 5 14 12 21 9 9 7 12 -11 12
-12 0 -20 -3 -18 -7 3 -5 -16 -9 -42 -9 -35 -1 -40 0 -21 6 27 9 26 11 -5 16
-38 6 -60 7 -75 3 -9 -2 -14 2 -12 9 1 8 -2 11 -8 7 -6 -3 -8 -10 -5 -15 3 -4
-2 -10 -10 -13 -14 -6 -11 15 5 38 14 20 7 41 -14 39 -37 -2 -91 -16 -105 -28
-11 -8 -13 -8 -7 2 9 16 -6 15 -74 -2 -30 -8 -58 -12 -62 -10 -3 2 -9 0 -13
-6 -14 -22 -25 -8 -25 30 l0 41 -115 -2 c-111 -1 -141 -9 -146 -37 -6 -33 -4
-51 5 -49 6 1 10 -4 8 -10 -1 -7 4 -13 12 -13 9 0 14 -9 13 -20 -1 -17 -7 -20
-32 -18 -25 3 -29 7 -27 27 2 13 -2 28 -10 32 -10 7 -10 9 0 9 7 0 12 14 12
36 0 24 4 33 12 28 7 -4 8 -3 4 4 -5 8 -56 12 -165 12 l-158 0 -6 -356 c-4
-196 -9 -360 -13 -363 -3 -3 -13 3 -22 14 -17 20 -26 20 -632 15 -338 -3 -541
-6 -451 -8 90 -1 162 -4 160 -7 -3 -2 -169 -5 -369 -5 l-363 -1 2 283 c1 156
4 316 8 356 l6 72 -143 0 -142 0 5 -30z m164 -57 c-2 -16 -4 -5 -4 22 0 28 2
40 4 28 2 -13 2 -35 0 -50z m2152 46 c-8 -15 -8 -24 0 -32 20 -20 11 -28 -10
-8 -17 16 -19 23 -10 40 7 12 16 21 22 21 6 0 5 -8 -2 -21z m520 -2 c-2 -1
-12 -9 -21 -16 -15 -12 -18 -11 -18 3 0 10 8 16 22 16 12 0 19 -1 17 -3z
m-2809 -31 c0 -3 -4 -8 -10 -11 -5 -3 -10 -1 -10 4 0 6 5 11 10 11 6 0 10 -2
10 -4z m0 -41 c-7 -8 -17 -12 -23 -8 -6 4 -3 9 9 14 27 11 28 11 14 -6z m3057
-34 c-9 -12 -9 -13 1 -7 7 4 12 2 12 -4 0 -6 4 -9 9 -6 4 3 19 -6 32 -21 25
-27 20 -26 -44 14 -33 21 -36 26 -26 45 9 16 13 18 20 7 4 -8 3 -19 -4 -28z
m-802 -21 c-9 -14 8 -13 23 2 9 9 15 9 24 0 9 -9 7 -12 -9 -12 -12 0 -25 -4
-28 -10 -10 -17 -25 -11 -25 10 0 11 5 20 11 20 5 0 7 -4 4 -10z m-2118 -157
c-2 -27 -3 -5 -3 47 0 52 1 74 3 48 2 -27 2 -69 0 -95z m2858 97 c-3 -5 -12
-10 -18 -10 -7 0 -6 4 3 10 19 12 23 12 15 0z m-2798 -317 c-2 -32 -3 -6 -3
57 0 63 1 89 3 58 2 -32 2 -84 0 -115z m-50 -103 c0 -82 -3 -150 -8 -150 -10
0 -12 283 -2 293 3 4 7 7 7 7 1 0 2 -67 3 -150z m2534 57 c-10 -9 -11 -8 -5 6
3 10 9 15 12 12 3 -3 0 -11 -7 -18z m-2484 -99 c-2 -13 -4 -5 -4 17 -1 22 1
32 4 23 2 -10 2 -28 0 -40z m2436 -35 c-7 -2 -19 -2 -25 0 -7 3 -2 5 12 5 14
0 19 -2 13 -5z m-48 -32 c3 -5 1 -12 -5 -16 -5 -3 -10 1 -10 9 0 18 6 21 15 7z
m65 -1 c0 -5 -4 -10 -10 -10 -5 0 -10 5 -10 10 0 6 5 10 10 10 6 0 10 -4 10
-10z m-70 -34 c0 -2 -7 -7 -16 -10 -8 -3 -12 -2 -9 4 6 10 25 14 25 6z m-81
-37 c-11 -8 -10 -12 5 -24 17 -13 18 -17 6 -28 -8 -7 -10 -8 -7 -1 4 7 0 14
-8 18 -8 3 -15 13 -15 23 0 15 -2 16 -10 3 -5 -8 -10 -10 -10 -4 0 16 44 44
49 32 2 -6 -3 -14 -10 -19z m265 -24 c-7 -16 -24 -21 -24 -6 0 8 7 13 27 20 1
1 0 -6 -3 -14z m-310 -11 c9 -24 2 -26 -12 -4 -7 11 -8 20 -3 20 5 0 12 -7 15
-16z m-24 -14 c0 -5 -4 -10 -10 -10 -5 0 -10 5 -10 10 0 6 5 10 10 10 6 0 10
-4 10 -10z m-2000 -64 c0 -2 -7 -6 -15 -10 -8 -3 -15 -1 -15 4 0 6 7 10 15 10
8 0 15 -2 15 -4z m2255 -21 c-22 -7 -219 -12 -200 -4 11 4 63 8 115 8 52 -1
91 -2 85 -4z m60 -32 c-4 -21 -9 -50 -12 -66 -3 -16 1 -37 11 -52 19 -29 92
-69 112 -61 10 4 12 2 8 -6 -5 -8 -2 -9 10 -5 9 4 15 3 12 -2 -10 -15 54 -31
128 -32 48 0 64 -3 51 -9 -19 -8 -75 -6 -144 6 -52 8 -145 59 -175 94 -26 32
-32 68 -17 120 5 17 2 29 -8 37 -14 11 -13 12 8 13 22 0 23 -3 16 -37z m239
11 c23 -9 20 -23 -4 -21 -11 1 -20 7 -20 14 0 15 2 15 24 7z m-985 -116 c-8
-14 -14 -18 -17 -10 -4 13 17 46 25 38 3 -2 -1 -15 -8 -28z m364 -1 c3 -8 -1
-14 -8 -14 -7 0 -11 6 -8 14 3 7 6 13 8 13 2 0 5 -6 8 -13z m-399 -64 c-10
-15 -21 -46 -25 -68 -6 -39 -7 -40 -8 -6 -1 31 37 117 47 106 3 -2 -4 -17 -14
-32z m361 -13 c3 -5 -1 -10 -9 -10 -9 0 -16 5 -16 10 0 6 4 10 9 10 6 0 13 -4
16 -10z m595 -10 c0 -5 -2 -10 -4 -10 -3 0 -8 5 -11 10 -3 6 -1 10 4 10 6 0
11 -4 11 -10z m-274 -41 c9 -16 132 -10 166 7 26 13 35 14 54 3 22 -11 34 -39
16 -39 -16 0 -34 -42 -23 -53 18 -18 13 -51 -15 -102 -22 -39 -24 -49 -13 -56
11 -7 10 -9 -3 -9 -10 0 -18 5 -18 12 0 6 -8 3 -20 -7 -11 -10 -17 -21 -15
-25 3 -5 -4 -6 -16 -3 -12 4 -25 0 -31 -8 -8 -11 -8 -10 -4 5 5 14 2 17 -10
12 -11 -4 -15 -2 -11 8 3 8 -3 22 -14 32 -11 10 -17 24 -14 32 3 7 -4 27 -16
43 -11 16 -17 33 -14 39 3 5 -4 14 -17 20 -13 5 -34 18 -48 27 -23 17 -24 17
-17 0 5 -13 3 -17 -5 -14 -8 2 -12 15 -10 30 2 15 -1 27 -7 27 -6 0 -3 8 7 18
18 18 87 19 98 1z m-697 -92 c1 -5 -3 -5 -9 -2 -5 3 -10 16 -9 28 0 21 1 21 9
2 5 -11 9 -24 9 -28z m301 28 c0 -1 -6 -7 -13 -13 -10 -8 -13 -6 -13 7 0 11 6
17 13 14 7 -3 13 -6 13 -8z m20 -25 c0 -5 -4 -10 -9 -10 -6 0 -8 -9 -6 -19 2
-12 -3 -21 -16 -24 -17 -4 -18 -3 -8 9 8 10 8 14 0 14 -6 0 -3 9 7 19 19 22
32 26 32 11z m35 -10 c3 -5 1 -10 -4 -10 -6 0 -11 5 -11 10 0 6 2 10 4 10 3 0
8 -4 11 -10z m-28 -52 c-3 -8 -6 -5 -6 6 -1 11 2 17 5 13 3 -3 4 -12 1 -19z
m-221 -23 c-1 -19 -4 -35 -7 -35 -9 0 -17 42 -11 58 8 24 18 11 18 -23z m241
13 c-3 -8 -6 -5 -6 6 -1 11 2 17 5 13 3 -3 4 -12 1 -19z m-44 -1 c3 -8 2 -20
-3 -26 -5 -9 -7 -4 -7 13 0 29 2 32 10 13z m24 -91 l-6 -41 14 30 c8 17 14 27
15 23 0 -3 3 -14 7 -24 4 -11 3 -15 -4 -11 -6 4 -14 0 -17 -9 -3 -8 -10 -13
-15 -9 -5 3 -13 -4 -16 -16 -6 -17 -9 -19 -16 -8 -7 12 -9 11 -10 -1 0 -10 -3
-8 -8 5 -5 12 -4 26 2 33 15 19 17 55 3 65 -7 6 -6 7 4 4 11 -3 14 -16 13 -48
-2 -53 15 -31 19 24 2 19 7 33 12 30 4 -3 6 -24 3 -47z m93 -6 c0 -5 -5 -10
-11 -10 -5 0 -7 5 -4 10 3 6 8 10 11 10 2 0 4 -4 4 -10z m-81 -88 c0 -14 -2
-13 -8 3 -8 19 -8 19 -15 -2 -4 -13 -12 -23 -17 -23 -14 0 -11 11 7 31 19 21
34 16 33 -9z m22 -15 c-10 -9 -11 -8 -5 6 3 10 9 15 12 12 3 -3 0 -11 -7 -18z
m-84 -9 c2 -17 0 -19 -7 -8 -5 8 -6 18 -4 22 8 12 10 10 11 -14z m56 -39 c5
-3 2 -9 -7 -12 -12 -5 -16 0 -16 15 0 12 3 17 8 12 4 -5 11 -12 15 -15z m-49
-6 c-8 -8 -11 -19 -8 -25 4 -7 9 -6 14 2 5 8 9 8 13 -4 3 -8 1 -16 -5 -18 -8
-3 -7 -12 2 -28 13 -24 12 -25 -7 -7 -11 9 -25 17 -32 17 -7 0 -9 5 -6 10 4 6
12 7 18 3 7 -4 7 0 -1 10 -8 9 -11 21 -7 28 4 6 2 15 -5 19 -7 5 -2 8 13 8 23
0 24 -2 11 -15z m86 -23 c0 -5 -2 -10 -4 -10 -3 0 -8 5 -11 10 -3 6 -1 10 4
10 6 0 11 -4 11 -10z m0 -130 c0 -5 -2 -10 -4 -10 -3 0 -8 5 -11 10 -3 6 -1
10 4 10 6 0 11 -4 11 -10z m-170 -111 c0 -5 5 -7 10 -4 6 3 10 1 10 -5 0 -15
-32 -9 -38 8 -2 6 1 12 7 12 6 0 11 -5 11 -11z m33 -69 c3 -11 1 -20 -4 -20
-5 0 -9 9 -9 20 0 11 2 20 4 20 2 0 6 -9 9 -20z m627 -122 c0 -19 -2 -20 -10
-8 -13 19 -13 30 0 30 6 0 10 -10 10 -22z m-680 2 c0 -5 -5 -10 -11 -10 -5 0
-7 5 -4 10 3 6 8 10 11 10 2 0 4 -4 4 -10z m660 -30 c12 -23 12 -24 -3 -11
-10 7 -17 20 -17 29 0 18 3 16 20 -18z m-2959 -378 c-9 -3 -8 -8 1 -20 12 -13
10 -14 -9 -3 -23 11 -30 31 -16 44 3 4 13 1 21 -5 10 -8 11 -13 3 -16z m-207
-32 c-6 -6 -10 -3 -10 10 0 13 4 16 10 10 7 -7 7 -13 0 -20z m104 -1 c-5 -3
-9 -12 -8 -20 4 -27 0 -40 -10 -34 -13 8 -13 55 0 55 5 0 6 8 3 17 -6 15 -5
16 9 3 9 -9 12 -18 6 -21z m5412 -16 c8 -16 16 -30 17 -32 1 -2 8 1 15 7 27
22 84 18 97 -7 8 -14 5 -25 -12 -48 -26 -35 -69 -40 -77 -9 -3 11 -11 21 -18
24 -8 2 -10 -3 -6 -15 5 -14 4 -15 -4 -4 -6 8 -8 19 -6 25 2 6 -5 25 -16 41
-18 27 -20 28 -20 9 0 -23 -11 -46 -51 -109 -14 -22 -34 -71 -43 -110 -39
-157 -52 -179 -55 -88 -1 44 3 62 25 118 4 11 8 25 9 30 6 54 56 145 81 145 8
0 14 6 14 13 0 13 19 37 30 37 4 0 13 -12 20 -27z m-5647 -8 c-3 -9 -8 -14
-10 -11 -3 3 -2 9 2 15 9 16 15 13 8 -4z m3071 -8 l29 -24 -32 -11 c-19 -7
-73 -52 -124 -104 -90 -91 -88 -83 4 18 38 41 46 56 42 78 -4 17 1 33 12 46
23 26 34 25 69 -3z m-2747 -16 c-1 -15 -5 -17 -18 -11 -9 5 -20 6 -24 2 -5 -4
-5 -2 -1 5 4 7 13 10 21 6 8 -3 15 0 15 6 0 6 2 11 4 11 3 0 4 -9 3 -19z
m2823 -39 c-15 -5 -40 17 -40 36 0 12 6 10 26 -9 14 -13 20 -25 14 -27z
m-2657 -2 c-3 -12 -8 -19 -11 -16 -5 6 5 36 12 36 2 0 2 -9 -1 -20z m2707 0
c0 -5 -2 -10 -4 -10 -3 0 -8 5 -11 10 -3 6 -1 10 4 10 6 0 11 -4 11 -10z
m-2675 -62 c0 -36 0 -37 -17 -20 -19 18 -15 59 5 59 8 0 12 -16 12 -39z m5212
-20 c-3 -7 -5 -2 -5 12 0 14 2 19 5 13 2 -7 2 -19 0 -25z m-50 6 c-3 -3 -12
-4 -19 -1 -8 3 -5 6 6 6 11 1 17 -2 13 -5z m-5587 -54 c0 -5 -2 -10 -4 -10 -3
0 -8 5 -11 10 -3 6 -1 10 4 10 6 0 11 -4 11 -10z m580 -69 c0 -6 -4 -13 -10
-16 -5 -3 -10 1 -10 9 0 9 5 16 10 16 6 0 10 -4 10 -9z m2627 -79 c-14 -18
-25 2 -19 34 l5 25 12 -23 c8 -16 9 -27 2 -36z m2513 28 c13 -11 26 -20 31
-20 4 0 21 -21 38 -47 26 -38 30 -53 25 -82 -9 -53 -26 -67 -49 -41 -11 12
-13 20 -6 20 16 0 11 71 -6 89 -8 7 -11 22 -8 35 5 17 4 18 -4 6 -7 -10 -11
-11 -11 -3 0 7 -7 10 -17 7 -15 -5 -15 -4 -4 4 13 9 11 14 -10 31 -13 11 -19
20 -13 21 6 0 21 -9 34 -20z m40 10 c0 -5 -5 -10 -11 -10 -5 0 -7 5 -4 10 3 6
8 10 11 10 2 0 4 -4 4 -10z m-23 -100 c15 -18 17 -50 3 -50 -5 0 -10 8 -10 18
0 10 -12 29 -26 43 -41 38 -53 70 -13 34 18 -16 39 -37 46 -45z m-2527 30 c0
-5 -2 -10 -4 -10 -3 0 -8 5 -11 10 -3 6 -1 10 4 10 6 0 11 -4 11 -10z m-2520
-72 c0 -6 -6 -5 -15 2 -8 7 -15 14 -15 16 0 2 7 1 15 -2 8 -4 15 -11 15 -16z
m566 10 c4 -6 3 -8 -3 -5 -6 4 -13 0 -17 -8 -3 -8 0 -14 6 -12 6 1 13 -11 15
-28 2 -16 8 -32 12 -35 10 -6 19 -52 27 -135 9 -93 21 -131 80 -251 34 -70 56
-129 58 -158 3 -27 1 -44 -5 -41 -5 4 -9 13 -9 21 0 8 -4 14 -10 14 -5 0 -10
9 -10 20 0 11 -4 20 -10 20 -5 0 -10 9 -10 21 0 11 -11 44 -24 72 -25 54 -33
75 -34 91 0 5 -4 12 -9 15 -4 3 -14 24 -21 46 -8 22 -20 54 -28 72 -19 41 -42
153 -45 218 -2 27 15 75 26 75 2 0 7 -5 11 -12z m372 -40 c18 -24 71 -61 91
-62 24 -2 61 -29 62 -46 0 -10 2 -11 6 -2 2 6 15 12 27 12 31 0 86 20 86 31 0
7 61 29 83 29 4 0 12 -10 18 -22 13 -31 32 -63 46 -80 7 -8 8 -19 3 -28 -5 -8
-6 -18 -3 -23 10 -17 -45 -231 -68 -262 -4 -6 -10 -28 -13 -50 -19 -145 -36
-200 -64 -209 -11 -4 -22 -14 -26 -24 -7 -22 -28 -55 -41 -64 -5 -4 -6 -10 -2
-14 14 -15 -117 -159 -135 -147 -5 2 -8 23 -8 47 0 23 -4 46 -9 51 -5 6 -11
35 -14 65 -3 34 -2 47 3 35 7 -16 9 -17 9 -3 1 9 -3 19 -8 22 -13 8 -20 56 -8
56 5 0 5 6 -2 14 -6 7 -9 21 -5 30 4 10 1 16 -7 16 -10 0 -10 3 -1 12 14 14
16 32 3 24 -4 -3 -6 6 -3 19 2 14 9 22 14 19 6 -4 5 3 -1 15 -7 12 -9 26 -6
31 3 5 0 7 -8 4 -16 -6 -16 -9 -21 251 -3 154 -7 188 -25 235 -11 30 -21 56
-21 59 0 6 34 -23 48 -41z m3649 20 c-3 -8 -6 -5 -6 6 -1 11 2 17 5 13 3 -3 4
-12 1 -19z m425 0 c-7 -7 -12 -8 -12 -2 0 14 12 26 19 19 2 -3 -1 -11 -7 -17z
m-4950 -54 c-20 -16 -56 -19 -47 -4 3 6 15 10 26 10 22 0 24 10 7 30 -7 8 -3
6 9 -4 21 -18 22 -20 5 -32z m-61 -3 c-7 -12 -17 -21 -24 -21 -9 0 -8 3 1 9 7
4 14 17 15 29 1 13 5 18 10 13 5 -5 4 -18 -2 -30z m1684 -73 c3 -29 6 -72 9
-96 3 -33 0 -42 -10 -38 -10 4 -13 -4 -10 -32 4 -49 -10 -86 -29 -79 -8 4 -16
-2 -20 -13 -3 -10 -11 -20 -18 -23 -19 -7 -50 19 -41 35 4 7 7 29 5 49 -1 22
6 50 18 73 12 20 21 43 21 51 0 8 5 15 10 15 6 0 10 13 10 29 0 17 4 32 9 35
5 3 12 23 16 43 5 30 9 34 16 21 5 -10 12 -41 14 -70z m3437 40 c-7 -7 -12 -8
-12 -2 0 14 12 26 19 19 2 -3 -1 -11 -7 -17z m8 -39 c0 -5 -4 -9 -10 -9 -5 0
-10 7 -10 16 0 8 5 12 10 9 6 -3 10 -10 10 -16z m-70 1 c0 -5 -2 -10 -4 -10
-3 0 -8 5 -11 10 -3 6 -1 10 4 10 6 0 11 -4 11 -10z m84 -86 c4 -9 4 -25 1
-35 -6 -17 -7 -17 -26 -1 -10 9 -19 21 -19 26 0 6 5 5 12 -2 19 -19 30 -14 18
8 -6 11 -7 20 -1 20 5 0 12 -7 15 -16z m-47 -76 c-3 -8 -6 -5 -6 6 -1 11 2 17
5 13 3 -3 4 -12 1 -19z m-3199 -31 c-6 -12 -11 -22 -10 -22 1 0 -1 -10 -4 -22
-4 -15 -11 -20 -22 -16 -9 4 -13 2 -9 -4 4 -5 0 -19 -8 -29 -8 -10 -15 -27
-15 -36 0 -9 -7 -23 -15 -31 -8 -8 -16 -21 -17 -28 -2 -7 -12 -21 -23 -31 -14
-12 -16 -17 -6 -18 11 0 11 -4 -2 -18 -10 -10 -17 -24 -17 -30 0 -7 -4 -12
-10 -12 -5 0 -10 -6 -10 -14 0 -8 -5 -16 -11 -18 -6 -2 -12 -17 -12 -33 -1
-17 -12 -41 -24 -55 -12 -13 -25 -36 -28 -51 -5 -21 -11 -26 -30 -23 -19 2
-25 -3 -25 -17 0 -11 -7 -22 -15 -25 -8 -3 -17 -15 -20 -25 -6 -17 -9 -18 -22
-7 -14 11 -16 10 -10 -12 3 -14 2 -32 -4 -40 -8 -11 -9 -9 -4 10 6 24 5 24 -9
6 -9 -11 -16 -16 -16 -10 0 5 -10 -6 -22 -25 -17 -26 -23 -30 -27 -18 -6 16
-31 9 -34 -9 -1 -5 -10 -8 -20 -6 -14 1 -17 -3 -12 -18 4 -11 2 -20 -4 -20 -6
0 -11 6 -12 13 0 6 -4 2 -9 -10 -10 -23 -50 -33 -50 -12 0 6 7 8 18 5 16 -7
16 -6 1 10 -16 15 -18 15 -38 -5 -11 -11 -16 -23 -11 -26 14 -8 13 -55 -1 -55
-6 0 -8 9 -4 20 4 11 2 20 -4 20 -6 0 -11 -9 -11 -20 0 -11 -4 -20 -9 -20 -5
0 -13 -9 -16 -21 -4 -12 -12 -18 -21 -15 -9 3 -14 -1 -15 -12 0 -11 -2 -12 -6
-4 -3 7 1 20 8 28 14 18 17 53 5 72 -5 8 -2 10 8 6 11 -4 13 0 9 14 -2 11 1
23 8 27 8 5 10 4 5 -4 -4 -6 0 -19 10 -28 16 -17 17 -15 12 24 -5 37 -4 41 9
28 8 -8 11 -20 7 -26 -5 -8 -3 -9 5 -4 7 4 10 16 8 27 -3 11 3 27 18 41 13 12
25 31 27 42 2 11 10 19 16 17 7 -1 12 7 12 18 0 11 4 20 9 20 5 0 13 10 17 22
l6 21 14 -24 c13 -24 13 -24 12 9 -1 38 2 43 31 45 11 1 20 6 20 12 -1 5 -1
18 0 29 1 15 4 16 16 6 13 -11 14 -10 9 4 -4 9 -1 16 6 16 14 0 49 40 50 56 0
6 7 17 15 24 8 7 12 16 9 21 -3 5 0 8 7 7 6 -2 14 3 17 11 3 9 0 11 -9 6 -8
-4 -4 2 9 14 12 12 22 28 22 36 0 8 10 23 22 34 13 13 22 33 22 55 1 33 2 34
20 18 11 -9 16 -11 12 -4 -4 6 -2 12 4 12 6 0 8 5 4 11 -4 7 -1 10 6 7 8 -2
22 4 32 14 10 10 25 18 33 18 8 0 15 7 15 15 0 14 12 20 33 16 5 -1 6 3 3 8
-3 5 1 12 10 15 8 3 12 10 9 16 -8 13 27 0 38 -14 5 -7 7 -2 4 11 -3 15 -1 20
9 16 11 -4 11 -10 2 -26z m3240 -32 c-8 -7 -9 -6 -4 3 4 6 3 12 -2 12 -5 0 -7
12 -4 28 l5 27 8 -30 c6 -19 4 -33 -3 -40z m-26 -9 c6 4 5 -2 -1 -15 -15 -27
-16 -27 -17 7 -1 15 1 21 3 14 3 -6 9 -9 15 -6z m-5807 -86 c3 -6 -1 -7 -9 -4
-18 7 -21 14 -7 14 6 0 13 -4 16 -10z m-23 -92 l-10 -33 1 35 c0 20 -3 42 -8
50 -5 10 -2 10 10 -2 15 -14 17 -22 7 -50z m-55 0 c-3 -8 -6 -5 -6 6 -1 11 2
17 5 13 3 -3 4 -12 1 -19z m-67 -8 c0 -5 -4 -10 -9 -10 -6 0 -13 5 -16 10 -3
6 1 10 9 10 9 0 16 -4 16 -10z m30 -4 c0 -2 -8 -10 -17 -17 -16 -13 -17 -12
-4 4 13 16 21 21 21 13z m-70 -16 c0 -5 -2 -10 -4 -10 -3 0 -8 5 -11 10 -3 6
-1 10 4 10 6 0 11 -4 11 -10z m90 0 c0 -5 -5 -10 -11 -10 -5 0 -7 5 -4 10 3 6
8 10 11 10 2 0 4 -4 4 -10z m40 -6 c0 -2 -7 -4 -15 -4 -8 0 -15 4 -15 10 0 5
7 7 15 4 8 -4 15 -8 15 -10z m-83 -32 c0 -12 -3 -11 -12 2 -7 8 -15 13 -19 9
-4 -4 -4 0 -1 9 5 13 10 14 19 5 7 -6 13 -18 13 -25z m241 13 c-3 -3 -9 2 -12
12 -6 14 -5 15 5 6 7 -7 10 -15 7 -18z m5876 -5 c-6 -6 -10 -3 -10 10 0 13 4
16 10 10 7 -7 7 -13 0 -20z m-5940 8 c-4 -6 -11 -25 -15 -42 l-7 -31 -1 31
c-1 16 4 35 11 42 15 15 21 15 12 0z m96 2 c0 -5 -5 -10 -11 -10 -5 0 -7 5 -4
10 3 6 8 10 11 10 2 0 4 -4 4 -10z m-27 -53 c-4 -6 -11 -1 -16 11 -6 12 -14
22 -19 22 -11 0 -10 -13 2 -28 5 -7 3 -6 -6 2 -10 9 -14 21 -10 32 6 15 9 15
31 -6 13 -13 21 -28 18 -33z m62 25 c-3 -3 -11 0 -18 7 -9 10 -8 11 6 5 10 -3
15 -9 12 -12z m-240 -10 c6 -4 12 -20 13 -37 l1 -30 -14 33 c-14 31 -35 44
-35 20 0 -6 -3 -9 -6 -5 -17 17 20 35 41 19z m-70 -22 c-10 -11 -23 -16 -29
-12 -7 4 -5 8 7 10 9 2 17 8 17 13 0 5 5 9 12 9 6 0 3 -8 -7 -20z m6190 1 c-3
-6 -11 -8 -17 -5 -6 4 -5 9 3 15 16 10 23 4 14 -10z m-6140 -11 c-3 -5 -12
-10 -18 -10 -7 0 -6 4 3 10 19 12 23 12 15 0z m58 -48 c-6 -10 -17 -16 -23
-14 -8 2 -11 -5 -7 -18 5 -21 -8 -29 -16 -7 -8 25 4 45 25 39 19 -5 21 -2 15
29 -5 31 -5 32 5 11 9 -17 9 -28 1 -40z m90 50 c-10 -6 -9 -13 1 -33 11 -22
11 -25 -5 -25 -9 0 -15 6 -12 12 2 7 -1 15 -7 19 -13 8 5 35 24 35 7 0 7 -3
-1 -8z m31 -27 c3 -8 1 -15 -4 -15 -6 0 -10 7 -10 15 0 8 2 15 4 15 2 0 6 -7
10 -15z m5956 3 c0 -5 -2 -8 -4 -8 -2 0 -11 -3 -19 -6 -8 -3 -17 1 -19 8 -4 8
3 13 18 13 13 0 24 -3 24 -7z m-6135 -29 c0 -7 -8 -15 -17 -17 -12 -2 -15 2
-11 18 6 23 28 22 28 -1z m253 -14 c-1 -19 -5 -32 -9 -27 -7 7 -1 62 7 62 3 0
4 -16 2 -35z m-43 -3 c-11 -2 -28 -11 -37 -20 -11 -9 -18 -11 -18 -4 0 15 52
42 65 34 5 -4 1 -8 -10 -10z m-260 -12 c10 -11 14 -20 9 -20 -5 0 -15 9 -22
20 -7 11 -11 20 -9 20 2 0 12 -9 22 -20z m155 -32 c18 -29 41 -63 52 -75 l20
-22 -20 2 c-11 0 -19 5 -16 9 3 4 -7 25 -22 48 -25 37 -28 39 -41 23 -13 -16
-13 -16 -3 5 8 16 8 28 0 42 -22 41 -1 18 30 -32z m2989 -62 c36 -33 130 -123
209 -200 79 -78 148 -139 155 -138 7 2 9 0 5 -4 -11 -10 12 -35 26 -27 6 3 8
3 4 -2 -11 -11 12 -36 26 -28 6 3 8 3 4 -2 -11 -11 12 -36 25 -28 5 3 7 1 4
-4 -4 -6 0 -16 8 -23 8 -7 15 -9 16 -4 1 15 20 -49 24 -86 5 -33 4 -34 -10
-15 -23 30 -310 319 -480 484 -82 79 -144 142 -138 140 15 -5 217 -185 247
-219 12 -14 96 -97 187 -185 91 -88 28 -23 -140 145 -277 276 -347 356 -172
196z m3029 80 c-2 -1 -12 -8 -22 -16 -18 -14 -18 -14 -6 7 8 12 18 19 23 16 4
-3 7 -6 5 -7z m-5919 -29 c12 -15 12 -17 -3 -11 -9 3 -16 13 -16 22 0 8 1 13
3 11 1 -2 9 -12 16 -22z m1348 -44 c-3 -10 -5 -2 -5 17 0 19 2 27 5 18 2 -10
2 -26 0 -35z m-1526 4 c-10 -9 -11 -8 -5 6 3 10 9 15 12 12 3 -3 0 -11 -7 -18z
m6069 13 c0 -5 -2 -10 -4 -10 -3 0 -8 5 -11 10 -3 6 -1 10 4 10 6 0 11 -4 11
-10z m-6155 -10 c3 -5 1 -10 -4 -10 -6 0 -11 5 -11 10 0 6 2 10 4 10 3 0 8 -4
11 -10z m292 -5 c0 -8 -4 -12 -9 -9 -5 3 -6 10 -3 15 9 13 12 11 12 -6z m5973
1 c0 -2 -9 -6 -20 -9 -11 -3 -20 -1 -20 4 0 5 9 9 20 9 11 0 20 -2 20 -4z m35
-6 c3 -5 1 -10 -4 -10 -6 0 -11 5 -11 10 0 6 2 10 4 10 3 0 8 -4 11 -10z
m-6150 -9 c3 -5 1 -12 -5 -16 -5 -3 -10 1 -10 9 0 18 6 21 15 7z m6065 -12 c0
-6 -4 -7 -10 -4 -5 3 -10 11 -10 16 0 6 5 7 10 4 6 -3 10 -11 10 -16z m-6240
-14 c-7 -8 -16 -15 -21 -15 -5 0 -1 8 9 18 20 22 31 19 12 -3z m6209 -8 c-1
-17 -2 -18 -6 -4 -2 9 -9 17 -14 17 -6 0 -7 5 -4 10 10 16 25 1 24 -23z
m-6168 -21 c-9 -11 -10 -20 -1 -35 6 -12 8 -21 6 -21 -16 0 -26 41 -16 61 7
11 14 18 17 15 3 -3 0 -12 -6 -20z m160 11 c-1 -12 -15 -9 -19 4 -3 6 1 10 8
8 6 -3 11 -8 11 -12z m69 -1 c0 -3 -4 -8 -10 -11 -5 -3 -10 -1 -10 4 0 6 5 11
10 11 6 0 10 -2 10 -4z m5874 -21 c-4 -8 -8 -15 -10 -15 -2 0 -4 7 -4 15 0 8
4 15 10 15 5 0 7 -7 4 -15z m133 -7 c-3 -8 -6 -5 -6 6 -1 11 2 17 5 13 3 -3 4
-12 1 -19z m-6137 -56 c-8 -12 -10 -12 -7 -2 6 22 -29 55 -45 43 -9 -8 -17 -7
-27 4 -12 13 -11 14 7 9 11 -4 23 -2 26 3 4 5 18 -1 31 -15 20 -20 23 -29 15
-42z m3095 -102 c476 -460 456 -439 461 -482 6 -44 -6 -72 -16 -38 -4 14 -12
24 -19 22 -7 -1 -9 2 -5 9 4 8 -106 123 -302 316 -170 168 -300 299 -288 291
24 -15 409 -382 533 -508 46 -47 79 -76 73 -64 -6 11 -147 152 -314 314 -167
162 -305 299 -307 305 -6 16 35 -21 184 -165z m2882 128 c-3 -7 -5 -2 -5 12 0
14 2 19 5 13 2 -7 2 -19 0 -25z m93 22 c0 -5 -7 -7 -15 -4 -8 4 -15 8 -15 10
0 2 7 4 15 4 8 0 15 -4 15 -10z m-5915 -9 c3 -5 1 -12 -5 -16 -5 -3 -10 1 -10
9 0 18 6 21 15 7z m-27 -26 c-3 -3 -9 2 -12 12 -6 14 -5 15 5 6 7 -7 10 -15 7
-18z m6012 4 c0 -5 -9 -9 -20 -9 -11 0 -20 5 -20 11 0 5 5 7 10 4 6 -3 10 -1
10 5 0 6 5 8 10 5 6 -3 10 -10 10 -16z m-4790 -44 c0 -8 5 -15 10 -15 6 0 10
-11 10 -24 0 -13 7 -43 15 -66 16 -45 20 -100 7 -100 -10 0 -31 63 -43 129 -5
29 -16 66 -24 82 -21 40 -18 57 5 31 11 -12 20 -28 20 -37z m4713 15 c-3 -12
-8 -19 -11 -16 -5 6 5 36 12 36 2 0 2 -9 -1 -20z m-6039 -1 c-4 -7 4 -20 17
-31 22 -18 22 -18 2 -9 -12 6 -25 16 -28 21 -6 10 1 30 11 30 3 0 2 -5 -2 -11z
m6006 1 c0 -5 -4 -10 -10 -10 -5 0 -10 5 -10 10 0 6 5 10 10 10 6 0 10 -4 10
-10z m51 -17 c-12 -20 -14 -14 -5 12 4 9 9 14 11 11 3 -2 0 -13 -6 -23z m32
-15 c-6 -30 -26 -40 -21 -10 3 15 20 43 25 38 1 0 -1 -13 -4 -28z m-6013 -3
c-7 -9 -15 -13 -17 -11 -7 7 7 26 19 26 6 0 6 -6 -2 -15z m5805 -5 c3 -5 -1
-10 -10 -10 -9 0 -13 5 -10 10 3 6 8 10 10 10 2 0 7 -4 10 -10z m230 -36 c2
-16 4 -35 4 -41 1 -7 4 -12 9 -10 4 1 8 -1 10 -5 6 -20 0 -28 -22 -28 -24 0
-27 16 -11 72 5 17 4 19 -4 8 -5 -8 -14 -11 -18 -6 -4 5 -2 11 5 13 6 3 12 12
12 21 0 24 11 7 15 -24z m-5995 1 c-7 -8 -17 -15 -23 -15 -6 0 -2 7 9 15 25
19 30 19 14 0z m3005 -5 c3 -6 -1 -7 -9 -4 -18 7 -21 14 -7 14 6 0 13 -4 16
-10z m2949 -33 c5 -27 4 -37 -3 -32 -6 3 -11 22 -11 42 0 44 5 41 14 -10z
m-4044 23 c0 -5 -5 -10 -11 -10 -5 0 -7 5 -4 10 3 6 8 10 11 10 2 0 4 -4 4
-10z m3881 -17 c-12 -20 -14 -14 -5 12 4 9 9 14 11 11 3 -2 0 -13 -6 -23z
m274 -23 c-3 -5 -10 -10 -16 -10 -5 0 -9 5 -9 10 0 6 7 10 16 10 8 0 12 -4 9
-10z m-295 -31 c0 -6 -4 -7 -10 -4 -5 3 -10 11 -10 16 0 6 5 7 10 4 6 -3 10
-11 10 -16z m284 -11 c8 -32 8 -35 -8 -41 -10 -4 -14 3 -13 29 1 39 12 45 21
12z m-214 -81 c-10 -9 -12 -9 -8 3 3 9 0 24 -8 35 -8 10 -14 24 -14 29 0 6 10
-4 22 -22 17 -27 18 -36 8 -45z m142 28 c11 -20 11 -20 -11 -1 -11 11 -21 26
-21 35 0 14 2 14 10 1 6 -8 16 -24 22 -35z m-2847 17 c-3 -3 -11 0 -18 7 -9
10 -8 11 6 5 10 -3 15 -9 12 -12z m-3180 -32 c-3 -5 -12 -10 -18 -10 -7 0 -6
4 3 10 19 12 23 12 15 0z m2737 -70 c3 8 3 -10 0 -40 -5 -60 -7 -65 -37 -74
-17 -5 -20 -1 -21 27 0 17 -4 43 -7 57 -4 14 -4 19 -1 12 3 -6 10 -10 15 -6 5
3 5 14 -2 26 -7 12 -7 18 -1 14 6 -3 14 8 18 26 l7 33 12 -45 c7 -26 14 -39
17 -30z m508 38 c0 -5 3 -7 8 -5 4 3 13 -1 20 -9 7 -8 9 -14 5 -14 -4 -1 3 -7
16 -14 13 -7 20 -15 15 -18 -5 -3 -29 15 -54 39 -25 24 -37 41 -27 37 9 -3 17
-10 17 -16z m2636 -15 c-1 -18 -14 -33 -29 -33 -4 0 0 11 9 25 19 30 22 31 20
8z m69 -12 c-6 -5 -25 10 -25 20 0 5 6 4 14 -3 8 -7 12 -15 11 -17z m-6015 15
c0 -2 -7 -6 -15 -10 -8 -3 -15 -1 -15 4 0 6 7 10 15 10 8 0 15 -2 15 -4z m-79
-33 c-5 -10 -8 -48 -7 -86 1 -70 -5 -82 -25 -46 -15 29 -6 105 16 129 22 25
29 26 16 3z m39 13 c0 -2 -8 -10 -17 -17 -16 -13 -17 -12 -4 4 13 16 21 21 21
13z m31 -29 c-10 -9 -11 -8 -5 6 3 10 9 15 12 12 3 -3 0 -11 -7 -18z m46 -11
c-8 -9 -13 -27 -11 -45 2 -17 -1 -33 -6 -36 -10 -6 -14 8 -11 34 2 7 -2 10 -8
6 -6 -3 -11 -1 -11 5 0 7 7 10 14 7 11 -4 13 -1 9 10 -4 9 1 21 12 29 23 17
32 10 12 -10z m3620 2 c-3 -8 -6 -5 -6 6 -1 11 2 17 5 13 3 -3 4 -12 1 -19z
m-262 2 c-3 -5 -1 -10 5 -10 6 0 9 -4 5 -10 -3 -5 -12 -7 -21 -3 -11 4 -12 9
-3 19 13 16 23 19 14 4z m2645 -10 c0 -5 -5 -10 -11 -10 -5 0 -7 5 -4 10 3 6
8 10 11 10 2 0 4 -4 4 -10z m-3070 -77 c47 -43 137 -130 200 -193 63 -63 173
-169 243 -235 123 -115 127 -122 127 -160 l0 -40 -24 30 c-46 58 -142 154
-246 248 -127 113 -400 381 -400 391 0 10 185 -159 305 -279 113 -113 363
-345 325 -300 -54 62 -119 126 -205 202 -49 44 -117 108 -150 143 -33 34 -78
79 -100 99 -98 89 -179 171 -170 171 6 0 49 -35 95 -77z m466 29 c-10 -10 -29
15 -21 28 6 9 10 8 17 -4 6 -10 7 -20 4 -24z m-3474 6 c-7 -7 -12 -8 -12 -2 0
14 12 26 19 19 2 -3 -1 -11 -7 -17z m3628 -18 c5 0 12 -9 15 -20 3 -11 10 -20
15 -20 4 0 10 9 13 20 3 11 10 20 16 20 6 0 8 -7 5 -15 -4 -8 -1 -15 5 -15 6
0 11 5 11 10 0 6 4 10 10 10 5 0 6 -8 3 -17 -5 -13 -2 -15 11 -10 14 5 16 3
11 -12 -3 -11 -2 -22 3 -25 5 -3 8 10 6 29 -1 19 2 35 7 35 9 0 11 -5 14 -53
3 -37 21 -55 28 -28 3 12 2 19 -3 16 -9 -6 -6 52 4 62 3 4 13 -3 22 -15 9 -13
21 -21 27 -20 20 4 57 -22 57 -40 0 -15 2 -15 10 -2 9 13 10 13 10 0 -1 -8 -7
-24 -15 -34 -13 -17 -15 -18 -15 -3 0 11 -8 17 -22 16 -13 0 -17 -3 -10 -6 6
-2 12 -22 12 -43 0 -41 15 -62 23 -33 3 11 6 7 7 -12 2 -23 5 -18 10 20 6 41
7 31 8 -52 1 -56 9 -128 17 -160 16 -63 20 -121 4 -66 -8 28 -16 35 -54 44
-27 7 -42 16 -38 22 4 6 0 8 -10 4 -9 -3 -19 -1 -23 5 -4 7 -10 6 -16 -3 -6
-10 -8 -7 -7 11 2 37 -1 47 -9 27 -6 -15 -10 -13 -25 13 -10 16 -13 30 -8 30
6 0 11 -8 11 -17 0 -9 3 -14 6 -10 13 12 -9 47 -32 53 -17 4 -23 11 -20 21 4
9 -1 17 -14 20 -20 5 -29 33 -10 33 5 0 7 7 4 15 -4 8 -1 15 6 15 7 0 6 6 -4
16 -9 8 -16 20 -16 26 0 7 -4 7 -13 0 -13 -11 -39 -1 -36 14 1 5 1 15 0 23 -1
11 -4 11 -18 0 -16 -13 -17 -12 -4 4 12 15 12 20 1 30 -10 9 -11 9 -6 0 4 -7
2 -13 -3 -13 -6 0 -11 5 -11 11 0 5 -4 8 -8 5 -5 -3 -9 1 -9 9 0 8 5 11 10 8
6 -3 8 7 5 25 -2 17 -1 29 4 26 4 -3 9 5 9 18 l2 23 4 -22 c2 -13 8 -23 13
-23z m2480 25 c0 -8 -2 -15 -4 -15 -2 0 -6 7 -10 15 -3 8 -1 15 4 15 6 0 10
-7 10 -15z m-2603 -42 c-11 -10 -26 8 -20 23 5 15 7 14 15 -1 6 -9 7 -19 5
-22z m2676 20 c-7 -2 -13 -20 -13 -39 0 -20 -4 -33 -9 -30 -8 5 -7 27 5 64 2
6 9 12 16 11 10 0 10 -2 1 -6z m-2623 -80 l0 -27 -24 33 c-14 18 -22 39 -20
46 9 22 44 -21 44 -52z m-730 47 c0 -5 -4 -10 -10 -10 -5 0 -10 5 -10 10 0 6
5 10 10 10 6 0 10 -4 10 -10z m-16 -80 c4 -24 3 -28 -2 -15 -14 31 -24 83 -13
65 5 -8 11 -31 15 -50z m1150 10 c4 -25 3 -31 -4 -20 -5 8 -10 26 -10 39 0 32
6 24 14 -19z m-3997 8 c-3 -8 -6 -5 -6 6 -1 11 2 17 5 13 3 -3 4 -12 1 -19z
m58 -16 c-8 -8 -25 10 -19 20 4 6 9 5 15 -3 4 -7 6 -15 4 -17z m693 -14 c-2
-25 -8 -32 -28 -35 -19 -2 -21 -1 -10 7 15 9 16 13 19 45 0 8 6 15 12 15 6 0
9 -14 7 -32z m3316 16 c5 -14 4 -15 -9 -4 -17 14 -19 20 -6 20 5 0 12 -7 15
-16z m-909 -208 c55 -56 134 -130 175 -166 41 -35 121 -109 178 -164 l102
-100 -1 -50 c-1 -28 -4 -41 -6 -29 -4 23 -193 213 -358 362 -121 109 -311 301
-297 301 7 0 71 -60 144 -133 73 -74 178 -174 233 -223 55 -49 119 -107 141
-129 100 -97 124 -119 124 -111 0 11 -156 164 -265 261 -100 89 -385 370 -385
380 0 11 96 -78 215 -199z m1040 195 c3 -5 2 -12 -3 -15 -5 -3 -9 1 -9 9 0 17
3 19 12 6z m-3415 -46 c0 -8 -5 -15 -11 -15 -7 0 -9 -9 -6 -22 6 -22 6 -22 -8
-4 -16 21 -19 39 -8 49 12 13 33 7 33 -8z m2940 6 c0 -6 -4 -12 -10 -16 -5 -3
-6 -13 -3 -23 6 -16 6 -16 -11 0 -14 15 -15 20 -4 32 15 17 28 20 28 7z
m-3730 -15 c0 -3 -4 -8 -10 -11 -5 -3 -10 -1 -10 4 0 6 5 11 10 11 6 0 10 -2
10 -4z m819 -49 c1 -5 -3 -5 -9 -2 -5 3 -10 -2 -10 -11 0 -10 -3 -15 -6 -11
-3 3 -3 21 1 39 7 29 9 30 16 13 4 -11 8 -24 8 -28z m5262 -4 c13 -15 12 -15
-8 -4 -24 12 -29 21 -14 21 5 0 15 -7 22 -17z m-99 -15 c-7 -7 -12 -8 -12 -2
0 14 12 26 19 19 2 -3 -1 -11 -7 -17z m-5990 5 c-6 -2 -10 -9 -6 -14 3 -5 0
-9 -5 -9 -12 0 -14 13 -4 23 3 4 11 7 17 6 6 0 5 -3 -2 -6z m3188 -24 c0 -14
-17 -10 -23 5 -4 10 -1 13 9 9 7 -3 14 -9 14 -14z m2880 11 c0 -5 -4 -10 -10
-10 -5 0 -10 5 -10 10 0 6 5 10 10 10 6 0 10 -4 10 -10z m-1740 -10 c0 -5 -4
-10 -10 -10 -5 0 -10 5 -10 10 0 6 5 10 10 10 6 0 10 -4 10 -10z m1707 -22
c-3 -7 -5 -2 -5 12 0 14 2 19 5 13 2 -7 2 -19 0 -25z m-5982 12 c-3 -5 -12
-10 -18 -10 -7 0 -6 4 3 10 19 12 23 12 15 0z m785 -10 c0 -11 -2 -20 -4 -20
-2 0 -6 9 -9 20 -3 11 -1 20 4 20 5 0 9 -9 9 -20z m3424 6 c-5 14 1 11 24 -10
27 -25 34 -27 47 -16 14 11 16 11 13 -1 -4 -19 -31 -29 -40 -15 -6 8 -8 7 -8
-1 0 -7 -4 -13 -10 -13 -5 0 -9 3 -9 8 5 29 -26 7 -51 -38 -5 -8 -12 -11 -16
-7 -5 4 -3 17 4 27 10 17 10 20 -3 20 -18 0 -18 2 -4 34 11 23 13 24 35 9 23
-15 24 -14 18 3z m-4275 -18 c-9 -17 -9 -23 0 -26 6 -2 9 -8 6 -13 -9 -14 -33
14 -27 31 5 13 21 29 30 30 1 0 -3 -10 -9 -22z m3227 -5 c-2 -2 -11 0 -20 3
-14 5 -15 9 -5 15 12 7 34 -10 25 -18z m2920 -20 c-8 -36 8 -63 25 -46 7 7 14
22 16 34 3 19 1 20 -13 8 -15 -12 -17 -12 -12 1 2 8 11 15 19 15 17 0 21 -42
4 -58 -6 -7 -10 -19 -7 -27 2 -8 -9 -1 -25 15 -26 26 -29 34 -21 58 6 15 12
27 15 27 2 0 2 -12 -1 -27z m-5661 -1 c-3 -3 -11 0 -18 7 -9 10 -8 11 6 5 10
-3 15 -9 12 -12z m5160 8 c3 -5 1 -10 -4 -10 -6 0 -11 5 -11 10 0 6 2 10 4 10
3 0 8 -4 11 -10z m-5590 -10 c-3 -5 -14 -10 -23 -9 -14 0 -13 2 3 9 27 11 27
11 20 0z m4502 -32 c-3 -8 -6 -5 -6 6 -1 11 2 17 5 13 3 -3 4 -12 1 -19z
m-3792 -243 c45 -39 240 -185 316 -236 37 -24 65 -47 62 -51 -2 -4 -16 3 -31
17 -15 14 -31 25 -36 25 -4 0 -39 23 -77 50 -38 28 -73 50 -79 50 -5 0 -10 4
-10 9 0 5 -17 20 -37 32 -46 28 -168 133 -243 209 -30 30 -58 54 -62 53 -4 -2
-10 6 -13 17 -4 11 -10 18 -15 15 -5 -3 -11 4 -15 15 -3 11 -11 20 -16 20 -6
0 -7 5 -4 10 4 6 56 -38 118 -99 62 -61 126 -122 142 -136z m5451 220 c-1 -25
-7 -31 -19 -19 -4 5 13 44 19 44 1 0 1 -11 0 -25z m-6206 8 c0 -5 -5 -15 -10
-23 -8 -12 -10 -11 -10 8 0 12 5 22 10 22 6 0 10 -3 10 -7z m58 -1 c15 12 16
11 3 -4 -7 -10 -17 -16 -21 -13 -18 11 -22 -19 -5 -32 17 -12 17 -13 2 -13 -9
0 -17 5 -17 11 0 5 -5 7 -11 3 -6 -3 -3 9 7 27 10 20 19 28 22 21 3 -10 7 -10
20 0z m6186 -37 c5 -16 1 -21 -14 -22 -11 -1 -20 3 -20 8 0 6 5 7 11 3 8 -5
10 1 7 20 -6 30 6 23 16 -9z m-1334 15 c0 -5 -5 -10 -11 -10 -5 0 -7 5 -4 10
3 6 8 10 11 10 2 0 4 -4 4 -10z m-4908 -84 c12 -9 26 -12 32 -9 6 4 7 2 3 -3
-23 -24 -68 16 -66 58 2 20 3 19 6 -4 2 -15 14 -34 25 -42z m-72 4 c0 -5 -5
-10 -11 -10 -5 0 -7 5 -4 10 3 6 8 10 11 10 2 0 4 -4 4 -10z m34 2 c3 -5 -1
-9 -9 -9 -8 0 -15 4 -15 9 0 4 4 8 9 8 6 0 12 -4 15 -8z m4016 -12 c0 -5 -4
-10 -10 -10 -5 0 -10 5 -10 10 0 6 5 10 10 10 6 0 10 -4 10 -10z m2123 -5 c-3
-9 -8 -14 -10 -11 -3 3 -2 9 2 15 9 16 15 13 8 -4z m101 7 c2 -4 -5 -9 -17 -9
-17 -2 -19 0 -7 7 18 12 18 12 24 2z m-2257 -24 c-3 -8 -6 -5 -6 6 -1 11 2 17
5 13 3 -3 4 -12 1 -19z m-3982 2 c3 -5 1 -10 -4 -10 -6 0 -11 5 -11 10 0 6 2
10 4 10 3 0 8 -4 11 -10z m4052 -47 c-3 -10 -5 -2 -5 17 0 19 2 27 5 18 2 -10
2 -26 0 -35z m-4097 21 c0 -8 -5 -12 -10 -9 -6 4 -8 11 -5 16 9 14 15 11 15
-7z m80 12 c0 -3 -4 -8 -10 -11 -5 -3 -10 -1 -10 4 0 6 5 11 10 11 6 0 10 -2
10 -4z m3088 -123 c137 -131 218 -205 297 -268 33 -26 101 -91 152 -144 85
-88 92 -99 91 -135 l0 -40 -21 30 c-31 45 -241 250 -342 334 -49 41 -119 104
-156 140 -36 36 -90 87 -118 114 -29 26 -50 50 -48 53 6 5 177 -147 177 -158
0 -5 29 -32 64 -61 189 -156 229 -192 324 -288 57 -58 95 -91 84 -75 -25 38
-189 195 -312 300 -52 44 -140 124 -195 178 -55 53 -111 104 -123 113 -27 18
-30 39 -4 25 9 -5 68 -58 130 -118z m3052 112 c0 -2 -10 -10 -22 -16 -21 -11
-22 -11 -9 4 13 16 31 23 31 12z m-6170 -9 c0 -2 -8 -10 -17 -17 -16 -13 -17
-12 -4 4 13 16 21 21 21 13z m51 -13 c13 -16 12 -17 -3 -4 -10 7 -18 15 -18
17 0 8 8 3 21 -13z m5209 -39 c0 -8 -4 -14 -10 -14 -5 0 -10 2 -10 4 0 2 -3
12 -6 20 -5 12 -2 15 10 10 9 -3 16 -12 16 -20z m990 -2 c0 -15 -2 -15 -10 -2
-13 20 -13 33 0 25 6 -3 10 -14 10 -23z m-6256 -3 c-3 -6 -12 -5 -22 0 -12 7
-23 5 -37 -7 -20 -17 -20 -17 -2 4 12 14 25 20 42 16 14 -2 22 -8 19 -13z
m4093 -31 c-2 -13 -4 -5 -4 17 -1 22 1 32 4 23 2 -10 2 -28 0 -40z m2057 36
c3 -8 2 -12 -4 -9 -6 3 -10 10 -10 16 0 14 7 11 14 -7z m57 -1 c13 -16 12 -17
-3 -4 -17 13 -22 21 -14 21 2 0 10 -8 17 -17z m-6247 -25 c-5 -8 -2 -9 11 -4
15 5 16 4 5 -9 -7 -9 -9 -22 -5 -32 5 -10 7 -23 6 -30 -1 -6 10 -10 27 -9 22
1 28 -3 30 -18 1 -17 -1 -18 -8 -6 -5 8 -10 11 -10 6 0 -5 -7 -3 -15 4 -12 10
-15 10 -15 -2 0 -8 5 -19 12 -26 8 -8 8 -12 1 -12 -13 0 -30 41 -39 94 -7 38
-7 39 -20 15 -7 -13 -13 -19 -14 -14 0 12 28 55 36 55 3 0 2 -5 -2 -12z m6216
-8 c0 -5 -2 -10 -4 -10 -3 0 -8 5 -11 10 -3 6 -1 10 4 10 6 0 11 -4 11 -10z
m94 -6 c4 -10 1 -14 -6 -12 -15 5 -23 28 -10 28 5 0 13 -7 16 -16z m-2649 -22
c-3 -3 -11 0 -18 7 -9 10 -8 11 6 5 10 -3 15 -9 12 -12z m2600 -2 c3 -5 1 -10
-4 -10 -6 0 -11 5 -11 10 0 6 2 10 4 10 3 0 8 -4 11 -10z m-2566 -30 c5 -16 7
-30 3 -30 -10 0 -31 48 -24 55 8 8 9 7 21 -25z m188 -21 c-5 -35 -4 -37 14
-26 14 9 21 9 31 -2 11 -12 10 -13 -4 -8 -10 4 -18 2 -18 -3 0 -9 14 -14 33
-11 4 0 7 -4 7 -9 0 -6 20 -19 44 -29 25 -11 45 -27 48 -39 4 -12 18 -23 36
-27 17 -3 34 -15 37 -25 4 -14 15 -17 53 -16 26 1 61 -1 77 -5 29 -7 28 -7
-10 -9 -56 -2 -73 -5 -131 -19 l-50 -12 -86 85 c-48 46 -89 82 -92 79 -3 -4
-4 17 -2 45 3 29 0 54 -5 58 -5 3 -7 10 -3 15 12 21 26 -6 21 -42z m230 14
c-3 -10 -5 -4 -5 12 0 17 2 24 5 18 2 -7 2 -21 0 -30z m36 -35 c2 -27 1 -48
-4 -48 -5 0 -9 26 -8 58 1 64 5 60 12 -10z m2062 52 c8 -13 -25 -13 -45 0 -12
8 -9 10 12 10 15 0 30 -4 33 -10z m-6093 -32 c-8 -8 -9 -4 -5 13 4 13 8 18 11
10 2 -7 -1 -18 -6 -23z m3033 -108 c55 -52 150 -137 210 -188 61 -50 162 -147
226 -215 109 -116 116 -126 111 -158 l-5 -33 -16 24 c-27 43 -272 288 -371
372 -114 96 -303 278 -296 285 2 3 53 -42 113 -99 59 -57 160 -149 223 -203
63 -55 163 -149 223 -210 60 -60 107 -105 105 -98 -6 22 -262 277 -363 362
-112 94 -305 275 -305 287 0 10 29 -15 145 -126z m3110 93 c-6 -24 -8 -25 -16
-11 -6 10 -16 15 -25 11 -11 -4 -12 -8 -4 -13 7 -5 6 -11 -6 -21 -13 -10 -16
-10 -10 -1 4 7 2 20 -6 29 -9 12 -9 15 0 9 6 -4 12 -3 12 3 0 10 19 9 38 -2 8
-6 12 -1 12 14 0 12 3 20 6 16 4 -3 3 -19 -1 -34z m-2060 17 c8 -13 -5 -13
-25 0 -13 8 -13 10 2 10 9 0 20 -4 23 -10z m2092 -37 c-3 -10 -5 -2 -5 17 0
19 2 27 5 18 2 -10 2 -26 0 -35z m26 27 c3 -11 1 -20 -4 -20 -5 0 -9 9 -9 20
0 11 2 20 4 20 2 0 6 -9 9 -20z m-906 -62 c-3 -8 -6 -5 -6 6 -1 11 2 17 5 13
3 -3 4 -12 1 -19z m871 9 c8 -10 6 -13 -9 -13 -19 0 -24 7 -12 19 8 9 9 9 21
-6z m-888 -9 c0 -6 -3 -9 -6 -5 -3 3 -15 -3 -27 -14 -11 -10 -29 -19 -38 -19
-10 0 -19 -6 -22 -12 -2 -7 -4 -1 -4 15 0 21 3 26 16 22 9 -2 27 2 41 9 32 18
40 19 40 4z m-1192 -25 c-8 -10 -14 -11 -16 -4 -2 6 -8 9 -13 5 -5 -3 -9 1 -9
9 0 10 8 13 25 9 21 -4 23 -7 13 -19z m2109 -5 c-3 -7 -5 -2 -5 12 0 14 2 19
5 13 2 -7 2 -19 0 -25z m-6241 -6 c-18 -16 -18 -16 -6 6 6 13 14 21 18 18 3
-4 -2 -14 -12 -24z m5204 18 c0 -5 -4 -10 -10 -10 -5 0 -10 5 -10 10 0 6 5 10
10 10 6 0 10 -4 10 -10z m1005 -18 c-3 -3 -11 0 -18 7 -9 10 -8 11 6 5 10 -3
15 -9 12 -12z m52 -4 c-3 -8 -6 -5 -6 6 -1 11 2 17 5 13 3 -3 4 -12 1 -19z
m-1087 -13 c14 -19 14 -19 -2 -6 -20 15 -25 2 -6 -17 8 -8 9 -12 1 -12 -6 0
-14 6 -16 13 -4 9 -8 8 -16 -3 -6 -8 -11 -10 -11 -5 0 9 33 58 35 52 0 -1 7
-11 15 -22z m970 10 c0 -9 -6 -12 -15 -9 -8 4 -12 10 -9 15 8 14 24 10 24 -6z
m30 5 c0 -5 -2 -10 -4 -10 -3 0 -8 5 -11 10 -3 6 -1 10 4 10 6 0 11 -4 11 -10z
m-1066 -26 c-5 -20 -54 -33 -54 -14 0 5 8 6 17 3 12 -5 15 -2 10 10 -4 11 -2
14 9 10 7 -3 14 1 14 8 0 7 2 10 5 8 2 -3 2 -14 -1 -25z m1138 -36 c-6 -6 -7
0 -4 19 5 21 7 23 10 9 2 -10 0 -22 -6 -28z m-23 10 c0 -13 -3 -17 -6 -10 -2
6 -9 10 -14 6 -5 -3 -9 -1 -9 5 0 8 9 14 28 20 1 1 2 -9 1 -21z m-5641 -12
c28 -10 52 -20 52 -23 0 -11 -114 8 -122 20 -12 18 -10 30 5 25 6 -3 36 -13
65 -22z m5546 -11 c-4 -8 -7 -15 -9 -15 -2 0 -5 7 -9 15 -3 9 0 15 9 15 9 0
12 -6 9 -15z m-1487 -7 c-2 -7 2 -26 10 -41 18 -36 6 -53 -51 -69 -22 -6 -49
-18 -59 -27 -11 -9 -24 -16 -30 -16 -7 0 -14 -4 -17 -10 -5 -9 59 -12 95 -3
11 3 51 19 90 37 68 32 70 32 85 13 16 -19 17 -19 39 -1 13 11 55 29 95 42 61
19 93 22 231 22 174 0 246 -10 393 -57 148 -47 207 -113 182 -203 -7 -25 -11
-48 -8 -51 3 -2 17 0 32 6 37 14 119 13 134 -2 6 -6 14 -9 17 -7 5 6 -58 63
-65 59 -3 -2 -6 4 -8 13 -2 9 2 17 8 17 7 0 6 5 -2 14 -9 10 -18 11 -30 5 -20
-11 -24 1 -6 19 9 9 7 17 -8 33 l-19 22 27 -17 c14 -9 29 -24 32 -32 3 -8 12
-14 21 -14 25 0 17 40 -15 70 -36 34 -81 47 -168 49 -29 1 -41 5 -36 12 11 18
109 4 162 -23 65 -33 98 -79 116 -163 8 -38 28 -99 45 -135 17 -36 36 -91 42
-123 9 -43 20 -66 45 -91 19 -19 34 -42 33 -53 -1 -31 -33 -121 -44 -122 -70
-7 -265 74 -265 111 0 5 12 20 28 34 16 14 20 22 10 18 -10 -3 -26 -3 -35 0
-14 6 -10 12 20 33 46 32 47 46 5 38 -29 -5 -38 -1 -77 39 -42 43 -47 45 -100
45 -31 -1 -64 -6 -75 -11 -17 -9 -18 -6 -13 39 2 26 8 56 12 66 7 16 -4 17
-136 17 -163 0 -234 9 -387 46 -109 27 -188 60 -211 88 -7 9 -17 14 -21 11 -4
-3 -11 10 -15 28 -5 23 -9 27 -12 14 -4 -15 -7 -16 -21 -5 -10 7 -14 8 -10 4
4 -5 -3 -18 -16 -30 -96 -85 -161 -115 -301 -136 -27 -4 -57 -10 -65 -13 -8
-3 -46 -8 -85 -11 -38 -3 -83 -8 -100 -11 -26 -5 -33 -1 -52 28 -13 18 -23 45
-23 60 l0 28 33 -23 c17 -13 35 -27 38 -31 3 -4 35 -9 70 -10 35 -1 67 -6 71
-12 5 -6 8 -5 8 3 0 7 12 12 28 12 64 0 162 13 162 22 0 6 7 8 15 4 9 -3 15 0
15 9 0 7 10 15 22 17 12 2 23 8 25 15 3 7 -4 9 -19 5 -21 -5 -22 -4 -9 12 11
13 11 20 3 28 -9 9 -12 8 -12 -5 0 -9 -5 -17 -11 -17 -5 0 -8 4 -5 9 3 5 -1
11 -9 14 -9 4 -13 1 -9 -11 2 -9 -2 -4 -9 12 -13 27 -15 28 -25 10 -6 -10 -12
-13 -12 -6 0 6 -7 12 -15 12 -8 0 -15 5 -15 11 0 8 -4 9 -13 0 -8 -6 -18 -7
-22 -3 -5 4 -5 -2 -1 -13 4 -11 4 -16 0 -12 -4 4 -13 -1 -20 -11 -8 -10 -13
-12 -14 -4 0 22 50 70 70 65 10 -3 21 0 24 6 4 6 15 11 25 11 10 0 18 7 18 15
0 8 -2 15 -4 15 -10 0 -49 -24 -55 -34 -4 -6 -10 -7 -14 -3 -8 7 46 53 58 50
5 -2 8 1 8 6 0 5 17 20 38 32 20 12 58 42 84 66 48 44 63 52 55 31z m1533 -8
c0 -11 -4 -20 -8 -20 -4 0 -8 9 -9 20 -1 11 2 20 8 20 5 0 9 -9 9 -20z m-2533
-37 c-3 -10 -5 -4 -5 12 0 17 2 24 5 18 2 -7 2 -21 0 -30z m-3700 -27 c-15
-14 -27 -21 -27 -17 0 4 9 16 20 26 11 10 17 23 13 29 -3 6 0 6 7 -1 11 -10 9
-17 -13 -37z m4481 25 c58 -16 69 -34 35 -56 l-28 -18 20 23 20 23 -23 -12
c-13 -7 -30 -10 -38 -7 -8 3 -26 1 -40 -4 -23 -9 -25 -8 -19 11 6 18 4 20 -13
15 -11 -4 -23 -3 -26 2 -3 5 -26 8 -50 7 -26 -1 -43 2 -39 8 3 5 -4 6 -18 2
-31 -10 -149 -13 -149 -4 0 11 37 14 192 17 75 2 154 -2 176 -7z m-385 -18
c-7 -2 -19 -2 -25 0 -7 3 -2 5 12 5 14 0 19 -2 13 -5z m-2619 -48 c20 -14 41
-25 46 -25 21 0 160 -178 160 -205 0 -5 -14 11 -31 38 -19 28 -42 50 -56 53
-17 5 -21 9 -12 14 9 6 8 12 -4 25 -10 9 -17 20 -17 24 0 4 -16 15 -35 24 -19
9 -35 12 -35 7 0 -6 -4 -10 -10 -10 -15 0 -12 30 3 30 6 0 -6 12 -28 25 -22
14 -35 25 -29 25 6 0 28 -11 48 -25z m2986 5 c0 -5 -4 -10 -10 -10 -5 0 -10
-7 -10 -15 0 -18 -12 -19 -27 -4 -7 7 -9 4 -6 -13 3 -18 0 -24 -16 -25 -16 -1
-20 3 -17 20 3 12 5 25 5 30 1 4 12 7 25 7 14 0 28 5 31 10 3 6 10 10 16 10 5
0 9 -4 9 -10z m-4428 -27 c-6 -3 -9 -10 -6 -15 4 -7 2 -8 -5 -4 -9 6 -9 11 0
22 6 8 15 12 18 8 3 -4 0 -9 -7 -11z m4248 -23 c0 -5 -4 -10 -10 -10 -5 0 -10
5 -10 10 0 6 5 10 10 10 6 0 10 -4 10 -10z m79 -17 c0 -24 -1 -25 -8 -8 -8 20
-8 20 -15 -1 -5 -16 -12 -20 -26 -17 -11 3 -20 0 -20 -6 0 -5 -6 -8 -14 -5 -8
3 -36 -2 -63 -11 -26 -9 -66 -19 -88 -21 l-40 -3 35 13 c19 7 38 11 43 9 4 -2
7 0 7 5 0 9 59 24 108 27 13 1 28 8 33 16 7 12 9 12 10 -1 0 -9 4 -7 11 8 15
30 28 28 27 -5z m1961 8 c-5 -11 -7 -28 -4 -38 5 -17 5 -17 -6 -1 -8 13 -8 23
0 38 6 11 13 20 16 20 2 0 0 -9 -6 -19z m-2206 -8 l28 -6 -32 -14 c-29 -12
-35 -11 -51 3 -21 19 -15 38 10 29 9 -4 29 -9 45 -12z m2133 -15 c-3 -7 -5 -2
-5 12 0 14 2 19 5 13 2 -7 2 -19 0 -25z m33 16 c0 -8 -5 -12 -10 -9 -6 4 -8
11 -5 16 9 14 15 11 15 -7z m-74 -6 c4 -7 3 -8 -4 -4 -7 4 -12 1 -12 -9 0 -9
-5 -13 -10 -10 -8 5 -7 11 1 21 14 17 16 17 25 2z m-3067 -163 c32 -27 96 -82
142 -121 46 -40 146 -132 222 -206 124 -122 137 -138 137 -170 0 -34 -1 -33
-167 132 -155 153 -262 252 -373 345 -82 68 -143 126 -139 130 3 2 18 -8 34
-23 29 -27 125 -110 255 -221 36 -30 136 -125 223 -210 86 -85 157 -151 157
-145 0 15 -319 326 -450 438 -130 112 -220 195 -220 203 0 3 27 -19 60 -49 34
-29 87 -75 119 -103z m-3159 89 c0 -8 -4 -12 -10 -9 -5 3 -10 10 -10 16 0 5 5
9 10 9 6 0 10 -7 10 -16z m118 -33 c-7 -9 -13 -17 -14 -19 -1 -2 -1 8 0 21 0
15 6 23 14 20 10 -4 10 -9 0 -22z m5933 7 c11 -21 11 -22 -4 -9 -10 7 -17 17
-17 22 0 15 9 10 21 -13z m-1197 -19 c9 -21 15 -27 19 -18 5 14 9 6 23 -41 4
-12 7 -12 13 -1 7 11 11 9 20 -6 5 -11 8 -23 4 -26 -3 -4 0 -13 7 -22 10 -12
10 -15 -4 -15 -10 0 -26 5 -37 10 -27 15 -24 2 6 -22 53 -41 29 -58 -81 -58
-78 0 -100 -7 -196 -64 -27 -15 -48 -25 -48 -22 0 3 -18 -1 -40 -9 -22 -8 -40
-10 -40 -6 0 5 11 12 25 15 16 4 25 13 25 27 0 29 35 101 59 123 11 10 18 23
15 28 -3 5 -12 1 -20 -9 -7 -10 -14 -13 -14 -8 0 6 -5 3 -10 -5 -9 -13 -11
-13 -20 0 -7 12 -10 12 -10 1 0 -7 -6 -11 -14 -8 -7 3 -37 -5 -65 -18 -28 -13
-51 -21 -51 -18 0 3 -8 -1 -17 -8 -15 -12 -16 -12 -10 4 3 9 2 17 -3 17 -6 0
-10 -9 -10 -20 0 -11 -4 -20 -10 -20 -5 0 -6 8 -3 18 6 15 5 15 -10 3 -14 -11
-18 -11 -23 3 -3 9 -10 13 -15 10 -5 -3 -9 2 -9 10 0 12 11 16 43 17 58 1 100
8 112 20 5 5 17 9 27 9 55 0 302 98 321 128 13 20 27 14 41 -19z m-3524 11
c13 -8 13 -10 -2 -10 -9 0 -20 5 -23 10 -8 13 5 13 25 0z m5017 -6 c-3 -3 -12
-4 -19 -1 -8 3 -5 6 6 6 11 1 17 -2 13 -5z m-4967 -14 c0 -5 -2 -10 -4 -10 -3
0 -8 5 -11 10 -3 6 -1 10 4 10 6 0 11 -4 11 -10z m40 -10 c8 -5 11 -10 5 -10
-5 0 -17 5 -25 10 -8 5 -10 10 -5 10 6 0 17 -5 25 -10z m4825 -20 c3 -5 -1
-10 -10 -10 -9 0 -13 5 -10 10 3 6 8 10 10 10 2 0 7 -4 10 -10z m-2545 -41 c0
-28 -15 -23 -18 7 -1 14 2 23 8 19 6 -3 10 -15 10 -26z m2634 1 c-6 -6 -10 -3
-10 10 0 13 4 16 10 10 7 -7 7 -13 0 -20z m-3298 -33 c33 -29 113 -107 179
-172 117 -116 83 -89 -80 65 -45 41 -103 94 -130 117 -28 24 -45 43 -39 43 6
0 38 -24 70 -53z m3257 10 c-4 -7 -8 -6 -11 3 -3 8 -10 22 -16 30 -6 8 -1 7
11 -4 13 -10 20 -23 16 -29z m-3178 -128 c77 -78 97 -102 55 -66 -87 76 -220
211 -195 199 11 -6 74 -66 140 -133z m3223 76 c-3 -3 -9 2 -12 12 -6 14 -5 15
5 6 7 -7 10 -15 7 -18z m-28 -19 c0 -2 -7 -6 -15 -10 -8 -3 -15 -1 -15 4 0 6
7 10 15 10 8 0 15 -2 15 -4z m-1870 -96 c0 -5 -5 -10 -11 -10 -5 0 -7 5 -4 10
3 6 8 10 11 10 2 0 4 -4 4 -10z m1890 -30 c-8 -15 -8 -20 1 -20 7 0 10 -3 6
-6 -3 -3 -10 -3 -16 1 -11 6 2 45 15 45 2 0 0 -9 -6 -20z m-30 -15 c0 -8 -2
-15 -4 -15 -2 0 -6 7 -10 15 -3 8 -1 15 4 15 6 0 10 -7 10 -15z m-4165 -5 c3
-5 2 -10 -4 -10 -5 0 -13 5 -16 10 -3 6 -2 10 4 10 5 0 13 -4 16 -10z m2621
-35 c10 -8 29 -15 42 -15 12 0 22 -4 22 -10 0 -13 -26 -13 -52 1 -16 9 -23 8
-29 -2 -5 -8 -9 -12 -10 -9 0 3 -2 15 -5 28 -5 26 4 28 32 7z m-1354 -107 c31
-45 14 -32 -28 20 -21 26 -28 38 -15 27 13 -11 32 -32 43 -47z m-458 -34 c52
-59 42 -56 -19 7 -28 27 -43 47 -35 43 8 -3 32 -26 54 -50z m2881 46 c3 -5 2
-10 -4 -10 -5 0 -13 5 -16 10 -3 6 -2 10 4 10 5 0 13 -4 16 -10z m-2414 -67
c13 -16 12 -17 -3 -4 -17 13 -22 21 -14 21 2 0 10 -8 17 -17z"/>
<path d="M3290 5041 c0 -6 5 -11 10 -11 6 0 10 -7 10 -16 0 -9 6 -14 13 -11
14 4 16 32 2 32 -5 0 -16 4 -22 8 -8 5 -13 4 -13 -2z"/>
<path d="M5601 3554 c0 -11 3 -14 6 -6 3 7 2 16 -1 19 -3 4 -6 -2 -5 -13z"/>
<path d="M6011 3384 c0 -11 3 -14 6 -6 3 7 2 16 -1 19 -3 4 -6 -2 -5 -13z"/>
<path d="M2066 2663 c-6 -14 -5 -15 5 -6 7 7 10 15 7 18 -3 3 -9 -2 -12 -12z"/>
<path d="M2341 2564 c0 -11 3 -14 6 -6 3 7 2 16 -1 19 -3 4 -6 -2 -5 -13z"/>
<path d="M2314 2478 c-3 -4 2 -8 10 -8 8 0 17 4 20 8 3 5 -2 9 -10 9 -8 0 -17
-4 -20 -9z"/>
<path d="M2970 2039 c0 -5 5 -7 10 -4 6 3 10 8 10 11 0 2 -4 4 -10 4 -5 0 -10
-5 -10 -11z"/>
<path d="M3865 1933 c1 -10 7 -28 14 -41 7 -13 10 -31 6 -39 -5 -15 9 -32 28
-33 9 0 3 31 -16 84 -14 42 -35 59 -32 29z"/>
<path d="M3811 1930 c0 -8 4 -22 9 -30 12 -18 12 -2 0 25 -6 13 -9 15 -9 5z"/>
<path d="M3840 1886 c0 -2 7 -6 15 -10 8 -3 15 -1 15 4 0 6 -7 10 -15 10 -8 0
-15 -2 -15 -4z"/>
<path d="M3960 1856 c0 -9 5 -16 10 -16 6 0 10 4 10 9 0 6 -4 13 -10 16 -5 3
-10 -1 -10 -9z"/>
<path d="M3937 1854 c-4 -4 -7 -18 -7 -31 0 -20 4 -23 20 -18 16 5 20 2 20
-17 0 -13 5 -30 10 -38 6 -10 8 -3 3 23 -4 24 -2 37 6 37 6 0 11 -11 11 -25 0
-14 5 -25 11 -25 6 0 1 -13 -11 -30 -23 -32 -17 -42 7 -12 13 16 14 15 8 -4
-3 -14 2 -30 16 -45 18 -21 20 -21 13 -4 -4 11 -7 30 -7 43 1 12 -3 22 -7 22
-5 0 -9 8 -9 18 0 9 -3 32 -7 49 -5 28 -10 32 -31 29 -17 -4 -26 1 -31 15 -4
11 -11 17 -15 13z"/>
<path d="M4027 1853 c-4 -3 -7 -11 -7 -17 0 -6 5 -5 12 2 6 6 9 14 7 17 -3 3
-9 2 -12 -2z"/>
<path d="M3930 1780 c0 -5 5 -10 10 -10 6 0 10 5 10 10 0 6 -4 10 -10 10 -5 0
-10 -4 -10 -10z"/>
<path d="M3952 1740 c0 -14 2 -19 5 -12 2 6 2 18 0 25 -3 6 -5 1 -5 -13z"/>
<path d="M4073 1734 c-8 -8 -9 -15 -3 -19 15 -9 12 -38 -2 -29 -10 5 -10 4 -1
-6 18 -19 25 -8 21 33 -2 28 -5 32 -15 21z"/>
<path d="M4050 1170 c0 -5 5 -10 10 -10 6 0 10 5 10 10 0 6 -4 10 -10 10 -5 0
-10 -4 -10 -10z"/>
<path d="M4110 1120 c0 -6 7 -10 15 -10 8 0 15 2 15 4 0 2 -7 6 -15 10 -8 3
-15 1 -15 -4z"/>
<path d="M4681 894 c0 -11 3 -14 6 -6 3 7 2 16 -1 19 -3 4 -6 -2 -5 -13z"/>
<path d="M4730 905 c0 -2 7 -8 15 -15 12 -10 15 -10 15 2 0 8 -7 15 -15 15 -8
0 -15 -1 -15 -2z"/>
<path d="M4580 890 c8 -5 20 -10 25 -10 6 0 3 5 -5 10 -8 5 -19 10 -25 10 -5
0 -3 -5 5 -10z"/>
<path d="M4685 840 c3 -5 8 -10 11 -10 2 0 4 5 4 10 0 6 -5 10 -11 10 -5 0 -7
-4 -4 -10z"/>
<path d="M5960 828 c0 -7 7 -22 15 -32 16 -21 18 -15 9 22 -7 23 -24 31 -24
10z"/>
<path d="M5305 785 c-16 -8 -39 -12 -50 -9 -19 5 -19 4 -2 -7 10 -6 64 -13
120 -15 64 -2 89 0 67 5 -19 4 -49 15 -67 24 -18 9 -33 17 -35 16 -2 0 -16 -7
-33 -14z"/>
<path d="M6040 598 c0 -13 -5 -29 -11 -35 -8 -8 -5 -14 11 -23 12 -7 20 -7 16
-2 -3 6 0 13 6 15 10 4 10 7 0 15 -7 5 -10 16 -7 24 4 9 2 19 -4 23 -7 4 -11
-3 -11 -17z"/>
<path d="M6030 516 c0 -2 7 -7 16 -10 8 -3 12 -2 9 4 -6 10 -25 14 -25 6z"/>
<path d="M4871 778 c-7 -15 -19 -24 -26 -22 -7 3 -16 1 -20 -5 -3 -6 -13 -11
-21 -11 -8 0 -26 -8 -41 -17 -23 -16 -24 -17 -7 -24 11 -4 43 -8 71 -8 47 -1
53 1 59 23 3 13 4 38 2 56 l-3 34 -14 -26z"/>
<path d="M4703 709 c-25 -9 -30 -19 -10 -19 15 0 43 17 37 23 -3 3 -15 1 -27
-4z"/>
<path d="M1007 6238 c-3 -89 -5 -163 -4 -164 1 -1 180 -4 397 -8 217 -3 514
-11 660 -17 146 -6 292 -9 325 -7 l60 3 3 178 2 177 -493 0 c-347 0 -496 -3
-504 -11 -7 -7 -28 -9 -60 -4 -26 4 -123 9 -214 11 l-166 5 -6 -163z"/>
<path d="M4483 6393 c9 -2 23 -2 30 0 6 3 -1 5 -18 5 -16 0 -22 -2 -12 -5z"/>
<path d="M4772 6355 c0 -16 2 -22 5 -12 2 9 2 23 0 30 -3 6 -5 -1 -5 -18z"/>
<path d="M3935 6277 c22 -12 49 -39 61 -60 18 -34 22 -36 34 -22 11 13 11 16
0 13 -7 -2 -15 3 -18 11 -2 8 0 11 6 7 6 -3 14 -1 17 4 5 7 12 5 20 -7 7 -10
16 -15 20 -12 13 13 -53 64 -98 77 -71 18 -87 15 -42 -11z"/>
<path d="M2890 6270 c0 -5 5 -10 11 -10 5 0 7 5 4 10 -3 6 -8 10 -11 10 -2 0
-4 -4 -4 -10z"/>
<path d="M4758 6184 c-2 -19 0 -37 4 -40 4 -3 8 13 8 35 0 51 -6 53 -12 5z"/>
<path d="M4154 6175 c22 -22 36 -57 37 -93 0 -24 1 -25 9 -7 5 11 9 14 9 7 1
-7 6 -10 11 -7 6 3 10 3 10 -2 0 -4 39 -8 87 -8 47 0 120 -3 162 -8 170 -16
214 -15 255 5 21 11 34 23 30 28 -5 4 -76 13 -159 20 -82 7 -153 14 -158 17
-4 2 -3 12 3 22 10 20 5 21 -220 37 -91 7 -94 7 -76 -11z"/>
<path d="M4673 6143 c15 -2 37 -2 50 0 12 2 0 4 -28 4 -27 0 -38 -2 -22 -4z"/>
<path d="M4020 6070 c0 -11 4 -20 9 -20 5 0 7 9 4 20 -3 11 -7 20 -9 20 -2 0
-4 -9 -4 -20z"/>
<path d="M3961 6039 c-1 -23 -4 -26 -28 -21 -24 4 -26 3 -16 -10 17 -20 6 -29
-23 -18 -33 13 -32 -9 1 -40 14 -13 25 -18 25 -11 0 7 4 10 9 7 9 -6 25 31 21
49 -1 6 5 4 12 -4 10 -11 10 -14 1 -18 -15 -5 -17 -23 -4 -23 5 0 13 9 16 21
5 16 10 18 21 8 7 -6 11 -16 8 -21 -3 -5 4 -4 15 4 15 9 24 10 29 2 4 -6 15
-14 26 -17 13 -5 17 -3 13 7 -4 10 -1 13 9 9 17 -6 19 28 3 58 -10 19 -10 19
-40 -1 -16 -12 -26 -26 -23 -32 4 -7 2 -8 -4 -4 -7 4 -12 14 -12 22 0 8 -4 15
-10 15 -5 1 -15 2 -21 3 -7 0 -15 10 -20 21 -7 18 -8 17 -8 -6z"/>
<path d="M4100 6041 c0 -5 5 -13 10 -16 6 -3 10 -2 10 4 0 5 -4 13 -10 16 -5
3 -10 2 -10 -4z"/>
<path d="M3880 6020 c6 -11 13 -20 16 -20 2 0 0 9 -6 20 -6 11 -13 20 -16 20
-2 0 0 -9 6 -20z"/>
<path d="M605 5971 c-3 -5 -1 -12 5 -16 5 -3 10 1 10 9 0 18 -6 21 -15 7z"/>
<path d="M993 5713 c26 -2 68 -2 95 0 26 2 4 3 -48 3 -52 0 -74 -1 -47 -3z"/>
<path d="M1248 5703 c7 -3 16 -2 19 1 4 3 -2 6 -13 5 -11 0 -14 -3 -6 -6z"/>
<path d="M3524 5466 c11 -9 24 -16 30 -16 12 0 7 5 -24 19 -24 11 -24 11 -6
-3z"/>
<path d="M3660 5406 c0 -2 7 -7 16 -10 8 -3 12 -2 9 4 -6 10 -25 14 -25 6z"/>
<path d="M3947 5293 c-14 -4 -16 -8 -6 -19 9 -11 15 -12 25 -3 15 12 19 30 7
28 -5 -1 -16 -3 -26 -6z"/>
<path d="M3895 5255 c1 -15 -3 -25 -11 -25 -21 0 -26 -18 -14 -55 7 -20 18
-35 27 -35 16 0 42 -27 43 -44 0 -5 -7 -3 -15 4 -13 11 -14 10 -9 -4 4 -10 13
-15 20 -12 7 3 16 0 20 -6 4 -7 3 -8 -4 -4 -7 4 -12 3 -12 -1 0 -5 10 -14 23
-22 20 -13 21 -13 8 2 -16 20 -8 22 21 6 12 -7 3 6 -20 28 -55 52 -54 63 4 52
25 -5 50 -6 56 -3 5 3 15 0 23 -6 8 -6 19 -9 25 -5 6 4 17 2 25 -5 11 -9 16
-7 24 9 17 31 13 40 -24 62 -37 22 -45 39 -20 39 8 0 15 5 15 10 0 6 -12 10
-26 10 -14 0 -23 4 -20 9 3 5 -6 11 -19 14 -14 2 -28 0 -31 -5 -3 -4 -9 -6
-14 -3 -5 3 -17 -6 -28 -20 -11 -14 -23 -25 -27 -25 -4 0 -2 7 5 15 11 13 10
18 -6 30 -29 22 -43 18 -39 -10z m112 -82 c-4 -3 -1 -13 6 -21 10 -13 9 -15
-6 -9 -10 4 -26 7 -34 7 -13 0 -13 3 -3 15 7 8 19 15 28 15 8 0 12 -3 9 -7z"/>
<path d="M4320 5139 c0 -14 -14 -46 -30 -70 l-31 -44 31 35 c16 19 30 38 30
42 0 4 12 11 26 14 24 6 25 8 8 17 -11 6 -22 15 -26 21 -4 6 -8 -1 -8 -15z"/>
<path d="M4265 5130 l-30 -8 33 -1 c17 0 32 4 32 9 0 6 -1 9 -2 9 -2 -1 -16
-5 -33 -9z"/>
<path d="M2766 5105 c-9 -26 -7 -32 5 -12 6 10 9 21 6 23 -2 3 -7 -2 -11 -11z"/>
<path d="M3859 4824 c-22 -25 -22 -26 -3 -16 12 6 24 18 28 27 8 21 3 19 -25
-11z"/>
<path d="M2743 4675 c0 -55 3 -91 7 -81 4 14 9 16 14 8 4 -7 12 -12 18 -12 6
0 1 8 -11 19 -20 17 -20 19 -4 26 17 6 17 7 1 19 -10 8 -15 20 -12 33 3 11 1
35 -4 54 -8 27 -9 14 -9 -66z"/>
<path d="M3930 4731 c0 -6 4 -13 10 -16 6 -3 7 1 4 9 -7 18 -14 21 -14 7z"/>
<path d="M2770 4566 c7 -7 13 -7 20 0 6 6 3 10 -10 10 -13 0 -16 -4 -10 -10z"/>
<path d="M3613 4525 c0 -11 4 -12 14 -4 8 7 13 8 13 1 0 -5 7 -12 15 -16 13
-4 14 -2 5 14 -12 23 -47 27 -47 5z"/>
<path d="M3625 4450 c-3 -5 -1 -10 4 -10 6 0 11 5 11 10 0 6 -2 10 -4 10 -3 0
-8 -4 -11 -10z"/>
<path d="M3498 4311 c-19 -19 -24 -36 -9 -27 5 3 14 -9 20 -27 9 -24 14 -29
20 -18 10 16 4 41 -10 41 -5 0 -7 11 -3 25 7 29 5 30 -18 6z"/>
<path d="M3572 4252 c-7 -14 -8 -30 -3 -35 4 -4 11 6 15 24 3 18 5 33 3 35 -1
1 -8 -9 -15 -24z"/>
<path d="M3626 4247 c3 -10 9 -15 12 -12 3 3 0 11 -7 18 -10 9 -11 8 -5 -6z"/>
<path d="M3705 4120 c-3 -5 -1 -10 4 -10 6 0 11 5 11 10 0 6 -2 10 -4 10 -3 0
-8 -4 -11 -10z"/>
<path d="M3774 4098 l-19 -23 23 19 c21 18 27 26 19 26 -2 0 -12 -10 -23 -22z"/>
<path d="M135 4020 c-3 -5 -1 -10 4 -10 6 0 11 5 11 10 0 6 -2 10 -4 10 -3 0
-8 -4 -11 -10z"/>
<path d="M225 4010 c-3 -5 -1 -10 4 -10 6 0 11 5 11 10 0 6 -2 10 -4 10 -3 0
-8 -4 -11 -10z"/>
<path d="M187 3987 c-3 -7 5 -19 16 -27 20 -12 21 -12 9 3 -8 9 -11 21 -7 27
3 5 2 10 -3 10 -6 0 -12 -6 -15 -13z"/>
<path d="M689 3910 c-13 -10 -20 -19 -16 -20 4 0 17 9 29 20 28 26 17 26 -13
0z"/>
<path d="M3766 3840 c5 -73 15 -107 70 -241 35 -85 64 -164 64 -175 0 -16 -2
-17 -10 -4 -7 11 -10 -3 -10 -47 0 -34 4 -64 9 -68 10 -6 24 27 25 59 1 23 46
34 46 12 0 -8 4 -18 10 -21 7 -4 7 3 0 20 -7 17 -7 33 0 45 14 25 10 98 -6
139 -8 18 -14 42 -14 53 0 24 -51 118 -64 118 -5 0 -3 7 4 15 7 8 8 15 3 15
-5 0 -20 23 -33 51 -13 28 -38 60 -55 72 -16 11 -34 26 -38 32 -5 5 -5 -28 -1
-75z"/>
<path d="M4078 3903 c6 -2 18 -2 25 0 6 3 1 5 -13 5 -14 0 -19 -2 -12 -5z"/>
<path d="M498 3880 c-4 -14 -10 -36 -14 -50 -4 -15 -3 -22 2 -17 5 5 9 12 10
15 0 4 4 15 8 24 4 9 6 25 4 35 -3 14 -5 13 -10 -7z"/>
<path d="M640 3870 c0 -5 7 -10 16 -10 8 0 12 -4 9 -10 -3 -5 2 -10 11 -10 16
0 16 1 -1 20 -20 22 -35 26 -35 10z"/>
<path d="M3430 3825 c-13 -14 -21 -27 -18 -30 2 -3 15 6 28 20 13 14 21 27 18
30 -2 3 -15 -6 -28 -20z"/>
<path d="M3275 3829 c-4 -6 -5 -12 -2 -15 2 -3 7 2 10 11 7 17 1 20 -8 4z"/>
<path d="M640 3819 c0 -5 5 -7 10 -4 6 3 10 8 10 11 0 2 -4 4 -10 4 -5 0 -10
-5 -10 -11z"/>
<path d="M4531 3784 c0 -11 3 -14 6 -6 3 7 2 16 -1 19 -3 4 -6 -2 -5 -13z"/>
<path d="M3374 3771 c3 -5 15 -7 26 -4 28 7 25 13 -6 13 -14 0 -23 -4 -20 -9z"/>
<path d="M761 3744 c0 -11 3 -14 6 -6 3 7 2 16 -1 19 -3 4 -6 -2 -5 -13z"/>
<path d="M722 3738 c-7 -7 -12 -18 -12 -25 0 -7 -5 -13 -10 -13 -6 0 -5 -8 2
-20 14 -22 33 -26 44 -8 4 7 3 8 -5 4 -17 -11 -24 19 -11 44 13 25 9 35 -8 18z"/>
<path d="M4206 3686 c2 -6 0 -24 -4 -41 -8 -28 -11 -30 -53 -28 l-44 2 35 -11
c64 -19 67 -21 48 -25 -10 -3 -18 -13 -18 -24 0 -11 -4 -28 -10 -38 -10 -20
12 -61 34 -61 8 0 22 -12 32 -27 10 -17 19 -23 22 -15 2 7 9 9 15 5 7 -4 6 1
-2 10 -11 14 -11 18 1 22 9 3 15 20 16 37 0 17 6 36 11 41 6 6 11 20 11 30 0
10 9 26 21 36 18 14 30 15 80 7 67 -11 79 -26 18 -23 -22 2 -43 -1 -45 -5 -3
-4 0 -8 6 -8 6 0 9 -4 6 -8 -3 -4 -1 -24 3 -44 5 -20 5 -40 1 -45 -5 -4 -11
-73 -14 -152 -3 -80 -9 -147 -13 -150 -11 -8 -15 -53 -4 -47 5 4 12 -13 16
-36 4 -24 11 -47 15 -53 9 -12 24 -67 22 -77 -1 -5 3 -8 9 -8 6 0 9 -7 5 -15
-3 -8 -2 -15 2 -15 4 0 23 -32 42 -72 34 -68 134 -196 155 -197 6 -1 29 -19
50 -41 21 -22 45 -40 52 -40 7 0 13 -5 13 -11 0 -5 5 -7 10 -4 6 3 10 0 10 -7
0 -7 15 -22 33 -34 17 -11 44 -29 59 -38 l28 -18 -4 42 c-3 31 0 40 10 36 8
-3 11 0 7 10 -3 7 -9 14 -14 14 -5 0 -9 5 -9 12 0 6 -9 32 -21 57 -30 67 -37
83 -45 111 -4 14 -16 38 -27 54 -17 23 -21 47 -22 127 -2 78 0 99 11 99 10 0
11 6 3 26 -11 30 -8 114 4 114 12 0 -1 89 -18 123 -8 17 -15 39 -15 50 0 12
-5 17 -14 14 -9 -4 -16 3 -21 20 -6 24 -35 63 -35 47 0 -4 -10 4 -23 18 -12
13 -29 22 -36 20 -8 -3 -11 0 -8 5 4 6 -5 16 -18 23 -14 7 -25 17 -25 21 0 4
-18 24 -40 45 -22 21 -40 44 -40 51 0 14 -19 19 -98 27 -49 5 -82 22 -82 44 0
5 -22 14 -49 19 -35 7 -48 7 -45 -1z m99 -76 c3 -5 1 -10 -4 -10 -6 0 -11 5
-11 10 0 6 2 10 4 10 3 0 8 -4 11 -10z"/>
<path d="M5946 3674 c-4 -9 -4 -19 -1 -22 2 -3 7 3 11 12 4 9 4 19 1 22 -2 3
-7 -3 -11 -12z"/>
<path d="M785 3669 c-4 -6 -5 -12 -2 -15 2 -3 7 2 10 11 7 17 1 20 -8 4z"/>
<path d="M3247 3628 c-40 -51 -61 -87 -53 -96 3 -3 6 -1 6 4 0 6 20 38 45 72
52 71 53 82 2 20z"/>
<path d="M835 3651 c3 -5 1 -12 -5 -16 -5 -3 -10 -1 -10 4 0 6 -4 11 -10 11
-13 0 47 -78 88 -114 32 -28 33 -28 47 -10 8 11 14 24 14 29 0 6 -6 2 -14 -8
-13 -18 -14 -18 -39 0 -14 10 -26 22 -26 26 0 5 -9 20 -19 34 -11 13 -17 31
-14 39 3 8 0 14 -7 14 -6 0 -9 -4 -5 -9z"/>
<path d="M760 3632 c0 -5 7 -13 16 -16 10 -4 14 -1 12 6 -5 15 -28 23 -28 10z"/>
<path d="M5915 3630 c-3 -5 1 -10 9 -10 9 0 16 5 16 10 0 6 -4 10 -9 10 -6 0
-13 -4 -16 -10z"/>
<path d="M5891 3604 c0 -11 3 -14 6 -6 3 7 2 16 -1 19 -3 4 -6 -2 -5 -13z"/>
<path d="M6130 3559 c0 -5 5 -7 10 -4 6 3 10 8 10 11 0 2 -4 4 -10 4 -5 0 -10
-5 -10 -11z"/>
<path d="M1006 3520 c8 -43 14 -51 14 -19 0 13 -5 31 -10 39 -7 11 -8 5 -4
-20z"/>
<path d="M3280 3509 c-19 -22 -37 -45 -39 -52 -2 -8 0 -8 5 -2 5 6 24 27 43
47 19 21 33 40 30 42 -2 2 -20 -13 -39 -35z"/>
<path d="M6010 3520 c0 -5 7 -10 16 -10 8 0 12 5 9 10 -3 6 -10 10 -16 10 -5
0 -9 -4 -9 -10z"/>
<path d="M4660 3505 c0 -3 12 -10 26 -15 14 -6 22 -15 19 -21 -4 -6 2 -13 14
-16 12 -3 21 -9 21 -14 0 -5 7 -9 15 -9 13 0 13 4 -2 26 -18 29 -93 68 -93 49z"/>
<path d="M6050 3501 c0 -5 7 -12 16 -15 14 -5 15 -4 4 9 -14 17 -20 19 -20 6z"/>
<path d="M6142 3475 c0 -16 2 -22 5 -12 2 9 2 23 0 30 -3 6 -5 -1 -5 -18z"/>
<path d="M6093 3469 c3 -9 0 -34 -8 -55 -14 -41 -5 -83 21 -105 23 -19 28 -3
5 20 -24 24 -28 82 -7 103 11 12 11 17 -2 34 -10 14 -13 14 -9 3z"/>
<path d="M1020 3463 c0 -6 -3 -20 -6 -30 -4 -13 -3 -14 3 -5 6 7 16 12 23 10
7 -2 15 3 18 11 3 9 0 11 -8 6 -7 -4 -16 -2 -21 6 -5 9 -9 10 -9 2z"/>
<path d="M1080 3460 c0 -5 5 -10 11 -10 5 0 7 5 4 10 -3 6 -8 10 -11 10 -2 0
-4 -4 -4 -10z"/>
<path d="M4805 3436 c22 -12 42 -21 45 -19 9 8 -45 43 -65 43 -14 0 -8 -7 20
-24z"/>
<path d="M935 3439 c-4 -6 1 -16 11 -24 23 -16 39 2 19 22 -16 16 -22 16 -30
2z"/>
<path d="M1008 3389 c12 -11 20 -24 17 -30 -7 -10 8 -13 18 -3 7 7 -33 54 -47
54 -5 0 0 -9 12 -21z"/>
<path d="M3940 3329 c0 -4 5 -11 10 -14 6 -3 10 -15 10 -26 0 -23 15 -25 24
-3 9 23 8 26 -6 18 -9 -5 -9 -2 1 9 7 9 12 17 10 18 -24 5 -49 4 -49 -2z"/>
<path d="M4120 3320 c0 -6 6 -13 14 -16 8 -3 17 -16 20 -30 8 -32 34 -31 34 1
0 13 -4 22 -9 20 -4 -3 -10 -1 -14 5 -10 17 -45 32 -45 20z"/>
<path d="M3460 3304 c0 -21 23 -79 42 -103 25 -33 23 -23 -12 51 -16 34 -30
58 -30 52z"/>
<path d="M6143 3286 c6 -15 -16 -29 -48 -29 -13 -1 -20 5 -19 16 1 9 -2 14 -7
11 -16 -10 -9 -36 11 -41 11 -3 20 -14 20 -24 0 -11 7 -22 15 -25 8 -4 15 -14
16 -23 0 -12 2 -11 8 4 9 22 4 38 -9 30 -15 -9 -21 14 -10 36 7 12 18 18 26
15 8 -3 14 0 14 5 0 7 9 9 21 6 13 -3 19 -1 16 6 -2 7 -12 11 -21 11 -9 -1
-16 2 -16 7 0 5 -5 9 -11 9 -6 0 -9 -6 -6 -14z"/>
<path d="M6210 3261 c0 -5 7 -12 16 -15 14 -5 15 -4 4 9 -14 17 -20 19 -20 6z"/>
<path d="M4201 3244 c0 -11 3 -14 6 -6 3 7 2 16 -1 19 -3 4 -6 -2 -5 -13z"/>
<path d="M6151 3230 c0 -8 4 -22 9 -30 12 -18 12 -2 0 25 -6 13 -9 15 -9 5z"/>
<path d="M6268 3219 c12 -14 20 -29 17 -32 -3 -4 -2 -5 2 -2 3 3 15 -2 25 -12
10 -9 18 -12 17 -7 0 5 -19 25 -42 44 -27 22 -34 26 -19 9z"/>
<path d="M6186 3216 c10 -8 21 -12 24 -10 5 6 -21 24 -34 24 -6 0 -1 -6 10
-14z"/>
<path d="M6082 3200 c0 -14 2 -19 5 -12 2 6 2 18 0 25 -3 6 -5 1 -5 -13z"/>
<path d="M6160 3172 c0 -5 9 -17 20 -27 11 -10 20 -15 20 -12 0 4 -9 16 -20
27 -11 11 -20 16 -20 12z"/>
<path d="M6230 3176 c0 -2 8 -10 18 -17 15 -13 16 -12 3 4 -13 16 -21 21 -21
13z"/>
<path d="M3499 3145 c6 -11 20 -31 31 -45 15 -17 18 -19 11 -5 -6 11 -20 31
-31 45 -15 17 -18 19 -11 5z"/>
<path d="M6270 3149 c0 -5 5 -7 10 -4 6 3 10 8 10 11 0 2 -4 4 -10 4 -5 0 -10
-5 -10 -11z"/>
<path d="M6354 3141 c21 -23 26 -26 26 -11 0 5 -10 15 -22 21 -23 12 -23 12
-4 -10z"/>
<path d="M6130 3130 c0 -5 5 -10 10 -10 6 0 10 5 10 10 0 6 -4 10 -10 10 -5 0
-10 -4 -10 -10z"/>
<path d="M6300 3080 c-8 -5 -12 -12 -9 -15 4 -3 12 1 19 10 14 17 11 19 -10 5z"/>
<path d="M3525 3060 c10 -11 20 -20 23 -20 3 0 -3 9 -13 20 -10 11 -20 20 -23
20 -3 0 3 -9 13 -20z"/>
<path d="M6184 3065 c-8 -20 15 -87 38 -108 10 -10 16 -22 13 -27 -6 -9 12
-23 33 -26 17 -3 15 11 -3 26 -8 7 -12 17 -8 23 3 6 1 7 -5 3 -8 -5 -12 1 -12
16 0 18 -2 20 -10 8 -7 -11 -11 -8 -21 15 -6 17 -11 42 -11 58 1 30 -5 35 -14
12z"/>
<path d="M3566 3047 c3 -10 9 -15 12 -12 3 3 0 11 -7 18 -10 9 -11 8 -5 -6z"/>
<path d="M6246 3047 c3 -10 9 -15 12 -12 3 3 0 11 -7 18 -10 9 -11 8 -5 -6z"/>
<path d="M4810 3036 c0 -8 5 -18 10 -21 6 -3 10 1 10 9 0 8 -4 18 -10 21 -5 3
-10 -1 -10 -9z"/>
<path d="M6216 3035 c4 -8 11 -15 16 -15 6 0 5 6 -2 15 -7 8 -14 15 -16 15 -2
0 -1 -7 2 -15z"/>
<path d="M3573 3000 c9 -13 17 -32 17 -42 0 -9 5 -20 12 -24 8 -5 9 -2 5 9 -4
10 -2 17 5 17 7 0 7 4 -1 14 -10 11 -8 15 6 20 14 4 13 4 -3 3 -11 -1 -29 5
-39 13 -18 14 -18 14 -2 -10z"/>
<path d="M3756 2994 c-8 -21 -8 -21 7 -27 10 -4 13 2 9 19 -5 28 -8 30 -16 8z"/>
<path d="M3728 2975 l-4 -30 -11 25 -12 25 -2 -25 c-2 -25 -2 -67 0 -83 1 -5
10 -5 21 -2 16 5 22 0 31 -22 10 -26 12 -27 19 -8 8 19 9 19 9 -3 1 -14 10
-26 26 -32 14 -5 25 -17 25 -27 0 -14 2 -15 9 -5 6 11 10 10 15 -4 6 -14 9
-16 15 -5 7 10 12 8 24 -9 15 -21 16 -21 16 -4 1 38 4 54 12 54 4 0 2 14 -4
30 -6 17 -15 30 -19 30 -4 0 -8 5 -8 11 0 5 6 7 13 3 6 -4 4 2 -6 14 -11 12
-27 19 -39 17 -14 -3 -18 0 -14 10 3 8 1 17 -4 20 -6 4 -10 2 -10 -4 0 -7 -9
-7 -27 0 -16 6 -29 10 -30 10 -15 -4 -25 3 -32 22 -8 21 -9 20 -13 -8z"/>
<path d="M6270 2991 c0 -6 4 -13 10 -16 6 -3 7 1 4 9 -7 18 -14 21 -14 7z"/>
<path d="M3626 2964 c-3 -9 -6 -25 -6 -37 1 -20 2 -20 11 -4 5 9 7 22 4 27 -3
6 -1 10 4 10 6 0 11 5 11 10 0 16 -17 12 -24 -6z"/>
<path d="M3660 2945 c0 -8 5 -15 10 -15 6 0 10 7 10 15 0 8 -4 15 -10 15 -5 0
-10 -7 -10 -15z"/>
<path d="M6170 2946 c0 -9 5 -16 10 -16 6 0 10 4 10 9 0 6 -4 13 -10 16 -5 3
-10 -1 -10 -9z"/>
<path d="M6200 2940 c0 -5 5 -10 11 -10 5 0 7 5 4 10 -3 6 -8 10 -11 10 -2 0
-4 -4 -4 -10z"/>
<path d="M3936 2860 c3 -19 6 -45 7 -57 1 -11 6 -19 11 -16 4 3 11 1 15 -5 7
-12 40 13 58 45 10 18 9 24 -4 35 -15 11 -16 11 -10 -4 3 -10 4 -18 0 -18 -3
0 -12 8 -20 18 -14 16 -14 16 -8 -3 4 -11 9 -26 12 -32 3 -7 0 -13 -6 -13 -6
0 -11 8 -12 18 0 14 -2 14 -9 -3 -7 -19 -8 -19 -18 5 -5 14 -12 34 -15 45 -4
11 -4 4 -1 -15z"/>
<path d="M6256 2873 c-3 -3 -3 -10 0 -14 7 -12 34 -11 34 0 0 11 -26 22 -34
14z"/>
<path d="M5120 2859 c0 -5 5 -7 10 -4 6 3 10 8 10 11 0 2 -4 4 -10 4 -5 0 -10
-5 -10 -11z"/>
<path d="M4048 2828 c-10 -10 -18 -22 -18 -28 0 -14 17 -12 23 3 3 7 6 5 6 -5
1 -10 -4 -18 -10 -18 -7 0 -9 -10 -4 -27 9 -37 22 -50 36 -36 14 14 39 6 33
-11 -3 -7 2 -13 10 -13 11 0 13 5 5 19 -5 10 -14 18 -20 18 -6 0 -8 9 -4 21 5
15 4 19 -4 15 -15 -10 -14 10 2 26 7 7 16 22 20 33 7 20 7 20 -8 1 -14 -19
-15 -19 -32 0 -17 19 -19 19 -35 2z"/>
<path d="M3746 2827 c3 -10 9 -15 12 -12 3 3 0 11 -7 18 -10 9 -11 8 -5 -6z"/>
<path d="M4132 2808 c-14 -14 -16 -68 -2 -68 6 0 10 8 11 18 0 14 2 14 8 -3 5
-12 4 -23 -3 -27 -7 -5 -5 -8 6 -8 12 0 16 8 16 30 -1 16 5 37 13 47 11 15 11
16 -1 6 -10 -10 -16 -9 -24 3 -9 12 -14 12 -24 2z"/>
<path d="M6350 2790 c0 -6 7 -10 15 -10 8 0 15 2 15 4 0 2 -7 6 -15 10 -8 3
-15 1 -15 -4z"/>
<path d="M4001 2777 c-8 -10 -7 -14 4 -14 8 0 15 6 15 14 0 7 -2 13 -4 13 -2
0 -9 -6 -15 -13z"/>
<path d="M4175 2760 c-3 -5 -1 -10 4 -10 6 0 11 5 11 10 0 6 -2 10 -4 10 -3 0
-8 -4 -11 -10z"/>
<path d="M4257 2754 c6 -17 36 -19 31 -2 -2 6 -11 12 -20 14 -11 1 -15 -3 -11
-12z"/>
<path d="M6373 2730 c-1 -17 4 -30 12 -34 8 -3 15 -1 15 4 0 6 -4 10 -9 10 -5
0 -7 8 -4 19 3 10 1 21 -4 24 -4 3 -9 -8 -10 -23z"/>
<path d="M6319 2733 c-13 -16 -12 -17 4 -4 9 7 17 15 17 17 0 8 -8 3 -21 -13z"/>
<path d="M4290 2730 c-8 -5 -18 -6 -24 -3 -5 3 -6 2 -3 -3 9 -15 70 -17 65 -2
-6 16 -20 20 -38 8z"/>
<path d="M4340 2725 c0 -7 -7 -18 -16 -23 -16 -9 -16 -11 0 -33 10 -15 16 -18
16 -9 1 13 3 12 13 -1 7 -9 18 -14 25 -12 6 3 12 -3 12 -12 0 -15 1 -15 16 -1
11 11 14 25 9 47 -4 17 -9 28 -12 25 -3 -2 -14 4 -26 15 -25 23 -37 24 -37 4z
m20 -36 c0 -5 -4 -7 -10 -4 -5 3 -10 1 -10 -6 0 -7 -3 -10 -6 -6 -8 7 4 27 17
27 5 0 9 -5 9 -11z"/>
<path d="M3740 2686 c0 -2 7 -7 16 -10 8 -3 12 -2 9 4 -6 10 -25 14 -25 6z"/>
<path d="M3850 2680 c0 -3 18 -11 40 -17 30 -8 40 -7 37 1 -4 12 -77 27 -77
16z"/>
<path d="M4030 2660 c0 -20 5 -30 15 -30 12 0 14 -7 9 -26 -5 -19 -4 -25 5
-20 6 4 11 1 11 -7 0 -8 7 -20 15 -27 13 -10 15 -9 15 9 0 12 4 20 9 16 5 -3
12 -1 16 5 4 6 11 8 16 4 6 -3 10 0 8 7 -3 29 2 37 21 32 14 -4 20 0 20 11 0
11 -7 16 -22 15 -42 -4 -58 1 -58 16 0 12 -4 13 -19 5 -15 -7 -23 -6 -35 5
-21 22 -26 19 -26 -15z"/>
<path d="M6347 2676 c-3 -8 5 -19 18 -26 13 -7 21 -18 18 -26 -3 -8 -1 -14 4
-14 5 0 9 9 10 20 1 11 -4 20 -13 20 -8 0 -13 3 -13 8 5 30 -14 45 -24 18z"/>
<path d="M4427 2653 c-6 -33 8 -54 31 -47 14 5 13 2 -2 -10 -19 -16 -19 -16 2
-16 27 0 28 17 5 65 -20 42 -29 44 -36 8z"/>
<path d="M3590 2666 c0 -2 8 -10 18 -17 15 -13 16 -12 3 4 -13 16 -21 21 -21
13z"/>
<path d="M3500 2615 c19 -19 36 -35 39 -35 3 0 -10 16 -29 35 -19 19 -36 35
-39 35 -3 0 10 -16 29 -35z"/>
<path d="M3650 2632 c6 -13 14 -35 16 -50 3 -14 10 -33 15 -41 8 -12 8 -10 3
7 -3 13 -7 35 -9 49 -1 14 -10 32 -20 41 -16 16 -17 16 -5 -6z"/>
<path d="M3887 2590 c-15 -18 -15 -20 -1 -20 12 0 15 -6 10 -25 -4 -15 -2 -25
4 -25 7 0 9 -8 5 -21 -5 -16 -4 -19 5 -14 9 5 11 4 6 -4 -4 -6 -12 -9 -17 -6
-5 4 -9 1 -9 -6 0 -6 8 -9 20 -6 11 3 17 1 14 -4 -11 -19 68 -71 83 -55 7 6 6
36 -1 108 -5 52 -35 94 -60 85 -9 -3 -18 -2 -21 3 -9 15 -19 12 -38 -10z"/>
<path d="M3565 2540 c10 -11 20 -20 23 -20 3 0 -3 9 -13 20 -10 11 -20 20 -23
20 -3 0 3 -9 13 -20z"/>
<path d="M3732 2540 c0 -14 2 -19 5 -12 2 6 2 18 0 25 -3 6 -5 1 -5 -13z"/>
<path d="M3870 2545 c0 -8 2 -15 4 -15 2 0 6 7 10 15 3 8 1 15 -4 15 -6 0 -10
-7 -10 -15z"/>
<path d="M4060 2515 c-7 -9 -10 -25 -6 -41 4 -14 3 -23 -2 -20 -5 3 -5 -16 0
-47 5 -29 14 -53 19 -55 5 -2 9 -11 9 -21 0 -9 5 -22 12 -29 9 -9 9 -12 0 -12
-19 0 -14 -14 18 -50 16 -18 27 -37 24 -41 -3 -5 -1 -9 5 -9 5 0 15 -15 21
-34 10 -32 40 -69 40 -50 0 5 -7 34 -16 64 -8 30 -16 60 -18 67 -1 7 -10 20
-19 31 -9 10 -17 25 -17 33 0 8 -4 19 -9 25 -4 5 -11 20 -14 35 -6 25 -6 25
53 22 32 -1 62 2 65 7 3 5 0 7 -8 4 -15 -5 -47 20 -47 37 0 5 -7 9 -15 9 -8 0
-15 9 -15 20 0 21 -19 28 -21 8 -1 -7 -4 -2 -8 12 -4 14 -13 24 -19 23 -6 -2
-9 4 -6 12 8 19 -10 19 -26 0z"/>
<path d="M5416 2508 c10 -14 21 -24 23 -22 3 3 -6 15 -18 27 l-24 22 19 -27z"/>
<path d="M3876 2512 c-4 -7 -13 -9 -19 -5 -7 4 -6 -1 2 -11 15 -18 37 -8 29
15 -3 10 -6 10 -12 1z"/>
<path d="M5395 2460 c-3 -5 -1 -10 4 -10 6 0 11 5 11 10 0 6 -2 10 -4 10 -3 0
-8 -4 -11 -10z"/>
<path d="M6370 2400 c0 -13 18 -22 24 -11 3 5 -1 11 -9 15 -8 3 -15 1 -15 -4z"/>
<path d="M4021 2385 c1 -22 16 -48 22 -38 3 5 0 19 -8 29 -8 10 -14 15 -14 9z"/>
<path d="M4171 2354 c0 -11 3 -14 6 -6 3 7 2 16 -1 19 -3 4 -6 -2 -5 -13z"/>
<path d="M4210 2358 c0 -9 5 -20 10 -23 13 -8 13 5 0 25 -8 13 -10 13 -10 -2z"/>
<path d="M5445 2330 c-3 -6 1 -7 9 -4 18 7 21 14 7 14 -6 0 -13 -4 -16 -10z"/>
<path d="M3954 2310 c3 -14 9 -37 12 -52 4 -16 10 -28 15 -28 4 0 1 21 -8 48
-17 51 -30 73 -19 32z"/>
<path d="M4231 2304 c0 -11 3 -14 6 -6 3 7 2 16 -1 19 -3 4 -6 -2 -5 -13z"/>
<path d="M4050 2277 c0 -11 39 -80 40 -69 0 14 -28 72 -35 72 -3 0 -5 -1 -5
-3z"/>
<path d="M5510 2267 c0 -13 64 -132 80 -150 17 -18 20 -18 20 -4 0 9 -4 17
-10 17 -5 0 -12 11 -16 25 -3 14 -10 25 -15 25 -5 0 -9 7 -9 15 0 8 -4 15 -10
15 -5 0 -10 7 -10 16 0 8 -7 22 -15 30 -8 9 -15 14 -15 11z"/>
<path d="M3731 2253 c-1 -6 3 -14 9 -18 5 -3 6 -13 3 -23 -6 -15 -4 -15 10 -4
15 13 13 47 -3 37 -5 -3 -11 1 -13 7 -4 9 -6 10 -6 1z"/>
<path d="M4265 2170 c-9 -15 5 -98 19 -103 11 -5 15 68 3 79 -3 3 -3 12 0 20
6 16 -13 19 -22 4z"/>
<path d="M6343 2158 c2 -7 9 -12 15 -11 5 1 9 -5 8 -15 0 -9 7 -18 17 -20 18
-4 18 -2 2 21 -17 27 -50 46 -42 25z"/>
<path d="M4130 2148 c0 -9 7 -19 16 -22 15 -6 15 -4 3 11 -7 10 -15 20 -16 22
-2 2 -3 -3 -3 -11z"/>
<path d="M4400 2151 c0 -6 5 -13 10 -16 6 -4 8 -30 6 -61 -5 -59 8 -83 19 -34
4 17 11 28 16 25 9 -6 -3 34 -23 73 -12 22 -28 30 -28 13z"/>
<path d="M4221 2123 c-1 -12 4 -25 9 -28 12 -7 12 2 0 30 -8 19 -9 19 -9 -2z"/>
<path d="M6280 2132 c0 -10 50 -47 64 -47 16 0 48 -43 41 -54 -3 -5 -1 -12 5
-16 5 -3 10 3 10 14 0 11 -4 23 -10 26 -5 3 -10 11 -10 16 0 6 5 7 10 4 6 -3
10 1 10 9 0 10 -6 13 -15 10 -8 -4 -15 -1 -15 6 0 7 -7 10 -15 7 -8 -4 -17 -2
-20 3 -4 6 -1 10 4 10 6 0 11 5 11 11 0 8 -5 7 -15 -1 -12 -10 -19 -10 -27 -2
-14 14 -28 16 -28 4z"/>
<path d="M57 2113 c-4 -3 -7 -11 -7 -17 0 -6 5 -5 12 2 6 6 9 14 7 17 -3 3 -9
2 -12 -2z"/>
<path d="M4308 2089 c2 -16 7 -31 11 -34 4 -2 5 9 3 26 -2 16 -7 31 -11 34 -4
2 -5 -9 -3 -26z"/>
<path d="M4372 2073 c-1 -25 4 -47 13 -57 8 -8 15 -19 15 -25 0 -6 5 -11 10
-11 14 0 12 8 -9 39 -11 15 -21 42 -24 61 -4 34 -4 33 -5 -7z"/>
<path d="M4537 2027 c3 -34 1 -57 -6 -61 -6 -4 -11 0 -11 8 0 9 -4 16 -10 16
-22 0 -8 -32 20 -48 17 -9 33 -25 36 -35 3 -9 10 -15 15 -11 6 3 18 -1 28 -10
16 -15 17 -11 19 64 2 44 -1 80 -6 80 -5 0 -7 -13 -4 -30 3 -18 0 -30 -7 -30
-6 0 -11 9 -11 20 0 11 -5 20 -10 20 -6 0 -8 -16 -4 -40 6 -35 4 -40 -10 -34
-14 5 -14 9 -4 22 11 13 10 15 -5 9 -15 -6 -17 -3 -11 16 12 33 8 67 -9 84
-13 14 -15 9 -10 -40z"/>
<path d="M5620 2058 c0 -9 5 -20 11 -23 17 -11 18 -2 3 19 -12 17 -14 17 -14
4z"/>
<path d="M4447 2020 c-3 -11 -1 -23 4 -26 5 -3 9 6 9 20 0 31 -6 34 -13 6z"/>
<path d="M5637 2009 c7 -7 15 -10 18 -7 3 3 -2 9 -12 12 -14 6 -15 5 -6 -5z"/>
<path d="M4430 1976 c0 -9 5 -16 10 -16 6 0 10 4 10 9 0 6 -4 13 -10 16 -5 3
-10 -1 -10 -9z"/>
<path d="M5646 1978 c4 -7 16 -25 26 -40 10 -14 18 -31 18 -38 0 -18 28 -42
35 -30 3 5 1 10 -4 10 -6 0 -11 5 -11 11 0 15 -53 98 -63 99 -5 0 -5 -6 -1
-12z"/>
<path d="M5420 1970 c0 -5 5 -10 10 -10 6 0 10 5 10 10 0 6 -4 10 -10 10 -5 0
-10 -4 -10 -10z"/>
<path d="M5032 1920 c0 -19 2 -27 5 -17 2 9 2 25 0 35 -3 9 -5 1 -5 -18z"/>
<path d="M21 1844 c0 -11 3 -14 6 -6 3 7 2 16 -1 19 -3 4 -6 -2 -5 -13z"/>
<path d="M4460 1849 c0 -5 5 -7 10 -4 6 3 10 8 10 11 0 2 -4 4 -10 4 -5 0 -10
-5 -10 -11z"/>
<path d="M4661 1844 c0 -11 3 -14 6 -6 3 7 2 16 -1 19 -3 4 -6 -2 -5 -13z"/>
<path d="M5690 1839 c0 -5 5 -7 10 -4 6 3 10 8 10 11 0 2 -4 4 -10 4 -5 0 -10
-5 -10 -11z"/>
<path d="M4685 1780 c-3 -5 -1 -10 4 -10 6 0 11 5 11 10 0 6 -2 10 -4 10 -3 0
-8 -4 -11 -10z"/>
<path d="M4130 1713 l0 -73 25 22 c14 12 25 29 24 37 0 10 -4 8 -9 -6 -9 -23
-30 -32 -30 -13 0 6 5 10 10 10 6 0 10 5 10 11 0 5 -5 7 -11 3 -8 -4 -9 3 -5
22 3 16 2 36 -4 44 -7 11 -10 -6 -10 -57z"/>
<path d="M5718 1758 c-10 -10 -14 -18 -9 -18 10 0 36 29 30 34 -2 1 -12 -6
-21 -16z"/>
<path d="M4710 1750 c0 -5 5 -10 10 -10 6 0 10 -12 11 -27 0 -16 3 -22 6 -15
7 18 -5 62 -17 62 -6 0 -10 -4 -10 -10z"/>
<path d="M4241 1724 c0 -11 3 -14 6 -6 3 7 2 16 -1 19 -3 4 -6 -2 -5 -13z"/>
<path d="M4260 1695 c0 -8 5 -15 10 -15 6 0 10 7 10 15 0 8 -4 15 -10 15 -5 0
-10 -7 -10 -15z"/>
<path d="M5035 1700 c3 -5 8 -10 11 -10 2 0 4 5 4 10 0 6 -5 10 -11 10 -5 0
-7 -4 -4 -10z"/>
<path d="M4183 1650 c-1 -11 2 -18 8 -15 11 7 12 35 1 35 -4 0 -8 -9 -9 -20z"/>
<path d="M4220 1640 c0 -5 4 -10 10 -10 5 0 7 -7 4 -15 -4 -8 -1 -15 5 -15 12
0 14 11 5 34 -7 18 -24 22 -24 6z"/>
<path d="M4691 1634 c0 -11 3 -14 6 -6 3 7 2 16 -1 19 -3 4 -6 -2 -5 -13z"/>
<path d="M4715 1600 c3 -5 8 -10 11 -10 2 0 4 5 4 10 0 6 -5 10 -11 10 -5 0
-7 -4 -4 -10z"/>
<path d="M4700 1576 c0 -2 8 -10 18 -17 15 -13 16 -12 3 4 -13 16 -21 21 -21
13z"/>
<path d="M5330 1521 c0 -6 5 -13 10 -16 6 -3 10 1 10 9 0 9 -4 16 -10 16 -5 0
-10 -4 -10 -9z"/>
<path d="M4530 1510 c0 -5 5 -10 11 -10 5 0 7 5 4 10 -3 6 -8 10 -11 10 -2 0
-4 -4 -4 -10z"/>
<path d="M4379 1498 c-8 -7 -12 -12 -10 -10 3 1 10 -7 16 -19 11 -19 12 -19
12 10 0 17 -1 31 -2 31 -1 0 -8 -6 -16 -12z"/>
<path d="M4595 1330 c11 -5 27 -9 35 -9 13 -1 13 0 0 9 -8 5 -24 9 -35 9 l-20
0 20 -9z"/>
<path d="M4690 1180 c0 -5 5 -10 10 -10 6 0 10 5 10 10 0 6 -4 10 -10 10 -5 0
-10 -4 -10 -10z"/>
<path d="M4625 1165 c-64 -29 -88 -36 -143 -39 -62 -4 -74 -22 -20 -31 23 -3
52 -9 63 -11 14 -4 16 -3 7 4 -11 7 -8 11 9 15 13 3 30 1 38 -6 10 -8 13 -8 8
0 -8 12 47 36 59 25 4 -4 4 -1 0 6 -5 8 -1 12 12 12 24 0 32 8 25 26 -6 17
-19 17 -58 -1z"/>
<path d="M5755 1149 c-4 -6 -5 -12 -2 -15 2 -3 7 2 10 11 7 17 1 20 -8 4z"/>
</g>
</svg>
